<?xml version="1.0" standalone="no"?>
<!DOCTYPE svg PUBLIC "-//W3C//DTD SVG 20010904//EN"
 "http://www.w3.org/TR/2001/REC-SVG-20010904/DTD/svg10.dtd">
<svg version="1.0" xmlns="http://www.w3.org/2000/svg"
 width="1382.000000pt" height="735.000000pt" viewBox="0 0 1382.000000 735.000000"
 preserveAspectRatio="xMidYMid meet">

<g transform="translate(0.000000,735.000000) scale(0.100000,-0.100000)"
fill="#000000" stroke="none">
<path d="M3330 5550 c0 -5 5 -10 11 -10 5 0 7 5 4 10 -3 6 -8 10 -11 10 -2 0
-4 -4 -4 -10z"/>
<path d="M3420 5540 c0 -5 5 -10 10 -10 6 0 10 5 10 10 0 6 -4 10 -10 10 -5 0
-10 -4 -10 -10z"/>
<path d="M4508 5473 c7 -3 16 -2 19 1 4 3 -2 6 -13 5 -11 0 -14 -3 -6 -6z"/>
<path d="M4470 5460 c0 -5 7 -10 16 -10 8 0 12 5 9 10 -3 6 -10 10 -16 10 -5
0 -9 -4 -9 -10z"/>
<path d="M3336 5435 c4 -8 7 -15 9 -15 2 0 5 7 9 15 3 9 0 15 -9 15 -9 0 -12
-6 -9 -15z"/>
<path d="M4580 5409 c0 -15 -5 -19 -15 -15 -8 3 -15 1 -15 -5 0 -6 -7 -8 -17
-5 -9 4 -20 1 -25 -6 -5 -9 -10 -10 -15 -2 -11 14 -83 18 -83 4 0 -7 -15 -10
-37 -8 -26 2 -38 -1 -37 -10 3 -42 4 -43 36 -40 18 2 33 -2 35 -9 3 -7 -2 -13
-10 -13 -9 0 -17 -5 -19 -11 -3 -9 -9 -9 -24 -1 -11 6 -24 8 -30 4 -15 -11
-14 -45 2 -57 13 -9 10 -16 -20 -43 -20 -18 -39 -32 -42 -32 -4 0 -16 -7 -26
-17 -12 -11 -18 -12 -18 -4 0 7 -5 11 -11 9 -13 -4 -13 -23 1 -24 6 -1 16 -2
23 -3 19 -2 -71 -81 -93 -81 -11 0 -20 5 -20 10 0 6 -7 10 -15 10 -8 0 -15 -4
-15 -10 0 -5 5 -10 11 -10 6 0 16 -6 24 -13 11 -11 6 -21 -27 -55 -22 -23 -47
-42 -56 -42 -38 -1 -80 -58 -59 -79 8 -8 7 -11 -4 -11 -8 0 -20 5 -26 11 -11
11 -45 -1 -70 -27 -22 -21 -15 -27 27 -21 22 3 40 3 40 1 0 -2 -21 -25 -47
-50 -46 -45 -47 -47 -25 -55 12 -4 22 -13 22 -18 0 -12 -34 -25 -37 -14 -4 11
-71 4 -79 -8 -3 -5 0 -9 5 -9 6 0 11 -4 11 -10 0 -5 -8 -9 -17 -8 -10 1 -35 0
-57 0 l-39 -2 27 -21 c23 -18 29 -19 43 -7 15 12 15 11 5 -9 -7 -12 -16 -25
-22 -28 -5 -3 -7 -12 -4 -19 6 -15 -33 -30 -41 -16 -6 10 -98 -13 -102 -26 -4
-13 68 -15 84 -3 8 7 10 5 6 -8 -3 -10 -22 -31 -42 -48 -20 -16 -30 -22 -22
-12 17 21 9 22 -30 2 -16 -9 -27 -20 -24 -26 4 -5 11 -7 16 -3 5 3 16 1 23 -5
7 -6 22 -8 32 -5 11 4 2 -5 -19 -20 -21 -14 -42 -26 -48 -26 -11 0 -33 -49
-30 -67 1 -7 -7 -13 -17 -13 -11 0 -23 -7 -26 -16 -4 -11 -13 -14 -31 -10 -25
6 -35 -7 -14 -19 6 -4 8 -14 4 -23 -3 -8 0 -19 7 -24 11 -6 10 -10 0 -17 -11
-6 -9 -10 7 -14 12 -3 19 -2 16 2 -2 5 8 14 23 22 15 7 36 20 46 29 12 9 20
11 23 4 4 -12 63 -6 63 7 0 5 -13 9 -30 9 -32 0 -37 8 -17 29 10 11 10 14 0
18 -7 3 -13 9 -13 15 0 6 8 3 19 -6 17 -16 19 -16 25 0 3 9 13 14 21 10 8 -3
17 -1 20 4 4 6 14 10 24 10 10 0 24 7 31 15 10 12 10 15 -4 15 -9 0 -16 5 -16
10 0 6 -7 10 -15 10 -23 0 -18 16 5 17 11 1 20 -4 20 -13 0 -16 9 -18 30 -4
13 8 12 10 -3 10 -11 0 -17 6 -15 13 3 7 23 12 49 13 24 0 53 5 64 12 19 11
18 11 -7 12 -16 0 -28 5 -28 11 0 5 5 7 10 4 6 -3 10 -1 10 4 0 6 7 11 15 11
21 0 19 20 -2 20 -14 1 -12 4 7 15 22 12 26 12 36 -1 6 -7 16 -14 22 -14 12 0
24 -29 16 -41 -3 -5 2 -9 11 -9 10 0 13 -5 9 -12 -5 -8 -2 -9 10 -5 19 8 89
-50 80 -65 -3 -4 5 -12 18 -17 38 -15 80 -61 69 -74 -5 -7 -9 -16 -9 -20 0
-17 -9 -17 -22 -2 -14 17 -50 20 -50 5 0 -18 53 -33 73 -20 28 17 71 -13 57
-40 -9 -17 -7 -18 25 -13 20 3 35 2 33 -3 -1 -5 3 -19 10 -32 10 -17 19 -21
36 -16 17 4 30 -1 45 -17 29 -31 26 -40 -9 -32 -19 3 -30 1 -30 -6 0 -6 10
-12 23 -13 47 -3 52 -4 49 -17 -1 -7 2 -19 8 -25 5 -7 9 -15 7 -17 -1 -2 2 1
7 7 7 8 17 7 37 -3 37 -18 37 -30 -1 -38 -16 -4 -30 -13 -30 -21 0 -10 7 -13
25 -8 16 4 34 -1 54 -15 16 -12 36 -21 44 -21 8 0 22 -11 30 -24 9 -13 32 -41
51 -62 38 -41 44 -60 24 -67 -7 -2 -5 -3 6 -1 29 4 115 -58 108 -78 -1 -5 2
-8 8 -8 5 0 10 -5 10 -11 0 -8 -4 -8 -12 -2 -7 6 -26 13 -43 16 -16 3 -39 9
-50 12 -13 4 -10 0 8 -12 15 -10 25 -23 22 -30 -3 -10 12 -13 59 -13 68 0 82
-6 64 -27 -9 -11 -7 -13 15 -9 31 5 51 -15 42 -44 -6 -17 -2 -20 27 -20 69 0
87 -45 27 -67 -17 -7 -28 -17 -24 -22 9 -15 38 -14 53 1 9 9 15 10 20 2 4 -6
26 -14 50 -18 34 -5 42 -3 42 9 0 9 -9 15 -24 15 -14 0 -28 5 -31 11 -4 6 -13
8 -19 6 -7 -3 -13 1 -13 9 0 17 3 17 29 3 28 -15 64 -3 71 23 5 18 8 19 22 8
11 -9 13 -15 5 -20 -8 -5 -6 -9 5 -14 12 -4 18 0 22 14 4 17 11 19 49 13 48
-6 45 -10 48 62 1 24 -3 30 -19 30 -11 1 -29 6 -39 12 -10 6 -27 8 -37 6 -11
-3 -19 0 -19 6 0 6 18 11 43 12 138 3 84 49 -60 52 -35 1 -47 17 -13 17 11 0
17 5 15 13 -3 6 4 18 16 25 19 12 20 11 14 -7 -9 -28 -1 -26 19 4 15 23 15 26
-4 45 -12 12 -33 20 -55 20 -41 0 -46 16 -10 32 33 15 32 30 -1 24 -19 -4 -24
-1 -20 9 3 9 -5 16 -22 20 -16 3 -36 20 -50 40 -19 30 -28 35 -60 35 -20 0
-44 5 -52 10 -11 7 0 10 37 10 28 0 53 -5 55 -11 2 -5 11 -7 20 -4 29 11 -3
33 -60 41 -43 5 -53 3 -71 -15 -23 -23 -49 -23 -42 0 2 8 3 22 3 33 -1 13 4
17 18 13 11 -3 21 1 24 9 3 8 -1 14 -10 14 -8 0 -12 5 -9 10 4 6 15 8 25 5 10
-3 22 -1 25 6 6 8 -8 9 -52 4 -50 -5 -61 -4 -66 9 -4 9 -12 13 -20 10 -7 -2
-24 0 -38 5 -24 10 -22 11 36 15 17 2 47 6 68 11 30 6 35 10 26 21 -6 8 -18
14 -25 14 -8 0 -13 6 -11 13 1 9 -25 11 -112 9 -99 -3 -113 -1 -108 13 4 9 1
15 -8 15 -8 0 -14 3 -14 8 3 18 -2 33 -9 28 -4 -2 -14 -1 -22 4 -10 6 -6 10
16 15 16 4 38 11 49 16 l20 9 -20 -2 c-11 0 -29 3 -39 7 -13 6 -23 3 -31 -9
-10 -13 -18 -14 -40 -6 -22 9 -26 15 -21 35 4 14 2 25 -4 25 -5 0 -10 9 -10
19 0 25 -27 34 -51 17 -21 -14 -80 -7 -120 15 -14 7 -19 6 -19 -3 0 -9 -3 -9
-12 1 -11 10 -9 14 6 23 15 8 16 12 5 19 -10 6 -5 9 16 9 l29 0 -22 16 c-12 8
-27 12 -33 8 -6 -3 -15 -1 -19 6 -5 8 -32 12 -73 12 l-65 0 8 27 c6 22 12 25
36 22 72 -8 79 -7 76 14 -5 29 -9 30 -45 17 -20 -7 -45 -8 -67 -3 -19 5 -29 9
-22 10 13 1 18 31 5 31 -5 0 -16 -7 -26 -14 -15 -12 -16 -15 -2 -26 27 -22 7
-23 -21 -1 -14 11 -30 18 -34 16 -5 -3 -11 -1 -15 5 -3 6 1 13 9 16 9 3 13 10
10 15 -3 5 1 9 9 9 7 0 24 11 37 25 13 14 19 25 15 25 -5 0 1 7 13 16 12 8 19
20 16 26 -5 7 -1 9 8 5 9 -3 23 2 33 13 15 17 15 19 -2 30 -16 10 -16 10 4 5
12 -3 24 -1 28 5 3 6 11 8 16 5 14 -9 11 4 -8 36 -17 28 -10 57 7 29 10 -17
47 -23 55 -10 4 6 10 8 15 5 5 -3 20 0 35 7 l26 12 -28 12 -28 11 38 0 c22 -1
37 -6 37 -13 0 -7 4 -15 9 -18 5 -4 7 4 4 15 -4 15 0 27 13 37 18 13 17 14 -8
8 -15 -3 -29 -2 -33 3 -7 12 32 34 45 26 13 -8 80 21 80 35 0 6 -11 15 -25 20
-14 5 -25 12 -25 16 0 3 7 4 15 0 11 -4 15 1 15 18 0 20 4 23 32 21 18 -2 37
3 43 10 5 8 21 15 35 17 25 4 24 4 -8 21 -27 15 -31 21 -22 33 8 9 21 12 37 8
16 -4 28 -1 36 10 7 8 30 22 52 30 40 14 40 14 13 21 -31 8 -38 39 -12 49 8 3
13 10 9 15 -3 6 5 8 19 5 14 -2 28 0 31 6 4 6 11 8 16 5 18 -12 9 14 -10 27
-14 10 -17 18 -10 28 5 8 9 25 9 37 0 12 6 24 13 26 7 3 5 6 -5 6 -10 1 -18 7
-18 14 0 7 -5 5 -11 -5 -11 -20 -39 -13 -39 11 0 14 2 14 10 1 8 -12 10 -12
15 2 9 23 -2 38 -26 38 -13 0 -19 -7 -19 -21z m35 -89 c3 -5 -1 -10 -9 -10 -9
0 -16 5 -16 10 0 6 4 10 9 10 6 0 13 -4 16 -10z m-360 -250 c3 -5 1 -10 -4
-10 -6 0 -11 5 -11 10 0 6 2 10 4 10 3 0 8 -4 11 -10z m-135 -154 c0 -2 -7 -6
-15 -10 -8 -3 -15 -1 -15 4 0 6 7 10 15 10 8 0 15 -2 15 -4z m89 -42 c2 -2 2
-6 0 -9 -8 -7 -49 7 -49 17 0 8 38 2 49 -8z m-213 -91 c-10 -10 -19 5 -10 18
6 11 8 11 12 0 2 -7 1 -15 -2 -18z m44 -53 c0 -5 -4 -10 -10 -10 -5 0 -10 5
-10 10 0 6 5 10 10 10 6 0 10 -4 10 -10z m-100 -50 c0 -5 -4 -10 -9 -10 -6 0
-13 5 -16 10 -3 6 1 10 9 10 9 0 16 -4 16 -10z m54 -35 c3 -8 1 -15 -4 -15 -6
0 -10 7 -10 15 0 8 2 15 4 15 2 0 6 -7 10 -15z m-164 -15 c0 -5 -5 -10 -11
-10 -5 0 -7 5 -4 10 3 6 8 10 11 10 2 0 4 -4 4 -10z m110 -71 c0 -5 -4 -9 -10
-9 -5 0 -10 7 -10 16 0 8 5 12 10 9 6 -3 10 -10 10 -16z m-228 -85 c-3 -17 -8
-22 -15 -15 -11 11 -3 41 11 41 5 0 7 -12 4 -26z m68 -8 c0 -3 -4 -8 -10 -11
-5 -3 -10 -1 -10 4 0 6 5 11 10 11 6 0 10 -2 10 -4z m297 -112 c-3 -3 -12 -4
-19 -1 -8 3 -5 6 6 6 11 1 17 -2 13 -5z m68 -54 c3 -5 1 -10 -4 -10 -6 0 -11
5 -11 10 0 6 2 10 4 10 3 0 8 -4 11 -10z m-585 -54 c0 -3 -4 -8 -10 -11 -5 -3
-10 -1 -10 4 0 6 5 11 10 11 6 0 10 -2 10 -4z m980 -96 c0 -5 -5 -10 -11 -10
-5 0 -7 5 -4 10 3 6 8 10 11 10 2 0 4 -4 4 -10z m130 -32 c-11 -10 -21 -23
-21 -28 -1 -6 -2 -15 -3 -22 0 -6 -7 -13 -14 -16 -9 -3 -12 3 -10 14 2 13 -4
20 -20 22 -31 5 -22 26 12 30 15 2 29 9 32 17 3 7 14 11 25 8 20 -6 20 -6 -1
-25z m-274 -32 c18 -19 18 -26 -1 -26 -8 0 -15 2 -15 4 0 2 -3 11 -6 20 -8 20
3 21 22 2z m374 -106 c13 -8 13 -10 -2 -10 -9 0 -20 5 -23 10 -8 13 5 13 25 0z
m-15 -40 c3 -5 -1 -10 -9 -10 -9 0 -16 5 -16 10 0 6 4 10 9 10 6 0 13 -4 16
-10z m155 -51 c0 -6 7 -17 15 -26 9 -8 13 -18 10 -22 -4 -3 -11 2 -16 12 -6
10 -23 18 -42 18 -24 1 -26 3 -9 6 12 2 22 9 22 14 0 5 5 9 10 9 6 0 10 -5 10
-11z m94 -130 c-5 -9 -34 -13 -34 -5 0 2 3 12 6 20 5 13 9 14 20 5 8 -6 11
-15 8 -20z m26 -84 c0 -2 -7 -5 -15 -9 -9 -3 -15 0 -15 9 0 9 6 12 15 9 8 -4
15 -7 15 -9z m40 -55 c0 -5 -7 -7 -15 -4 -8 4 -15 8 -15 10 0 2 7 4 15 4 8 0
15 -4 15 -10z m-112 -61 c3 -12 2 -12 -6 0 -6 8 -18 11 -31 6 -20 -6 -29 4
-15 18 9 9 48 -8 52 -24z m232 -13 c0 -15 -14 -35 -21 -30 -15 9 -10 34 6 34
8 0 15 -2 15 -4z"/>
<path d="M3320 5350 c0 -11 4 -20 9 -20 13 0 32 26 24 33 -13 14 -33 6 -33
-13z"/>
<path d="M4300 5350 c-13 -8 -12 -10 3 -10 9 0 17 5 17 10 0 12 -1 12 -20 0z"/>
<path d="M3320 5254 c0 -18 22 -42 35 -38 20 8 19 30 -1 38 -20 8 -34 8 -34 0z"/>
<path d="M3350 5171 c0 -12 5 -21 10 -21 6 0 10 6 10 14 0 8 -4 18 -10 21 -5
3 -10 -3 -10 -14z"/>
<path d="M3425 5149 c6 -9 1 -10 -19 -7 -14 3 -26 2 -26 -2 0 -4 -8 -7 -17 -6
-10 0 -18 -6 -18 -14 0 -10 12 -16 33 -18 25 -3 32 1 32 14 0 13 3 14 15 4 8
-7 12 -16 9 -21 -3 -5 -1 -9 4 -9 9 0 22 23 22 38 0 4 -9 13 -21 20 -15 10
-19 10 -14 1z"/>
<path d="M3341 5063 c-8 -21 -10 -43 -6 -60 10 -36 6 -94 -7 -110 -7 -9 -7
-13 1 -13 7 0 10 -4 6 -9 -3 -5 -1 -12 5 -16 5 -3 10 -11 10 -16 0 -6 -5 -7
-10 -4 -15 9 -25 -24 -11 -38 8 -8 11 -8 11 1 0 7 5 12 10 12 6 0 10 -11 10
-24 0 -18 6 -26 22 -28 12 -2 23 -9 26 -16 3 -9 -3 -11 -21 -7 -25 7 -25 6
-16 -37 6 -23 17 -48 25 -55 11 -8 12 -13 3 -19 -7 -4 -17 0 -24 9 -7 10 -16
17 -21 17 -6 0 -10 9 -11 20 -1 11 -9 27 -17 36 -15 14 -16 11 -16 -35 0 -49
-5 -56 -35 -52 -11 1 20 -25 46 -39 13 -8 18 -3 24 23 5 22 9 26 12 15 5 -21
11 -22 44 -6 24 11 25 15 16 45 -12 37 -8 43 22 46 16 1 21 8 21 30 0 23 -4
28 -22 25 -27 -4 -36 20 -11 29 10 4 27 15 37 25 18 16 18 18 3 18 -10 0 -17
8 -17 19 0 16 -6 18 -41 15 -30 -3 -39 -1 -36 8 2 7 10 12 16 11 6 -2 11 2 11
7 0 6 8 10 19 10 29 0 45 24 26 40 -12 10 -18 10 -30 0 -21 -17 -55 -3 -52 22
3 15 12 21 35 23 18 2 29 -1 27 -5 -3 -5 -1 -11 5 -15 6 -4 10 5 10 19 0 21
-5 26 -24 26 -26 0 -53 24 -37 34 5 3 21 2 35 -4 14 -5 26 -6 26 -2 0 4 5 0
10 -8 8 -12 10 -11 10 6 0 12 -9 25 -22 30 -26 11 -58 7 -58 -7 0 -19 -19 -8
-22 14 -3 20 -4 19 -17 -10z"/>
<path d="M4541 5058 c-9 -16 -9 -19 -1 -11 7 6 19 9 26 6 10 -4 12 0 8 11 -8
22 -17 20 -33 -6z"/>
<path d="M6051 5035 c-15 -16 -18 -25 -10 -25 11 0 11 -2 -1 -10 -10 -6 -17
-5 -22 4 -10 18 -108 18 -114 1 -3 -7 -18 -15 -33 -18 -16 -3 -36 -13 -44 -22
-9 -8 -20 -15 -26 -15 -6 0 -33 -15 -60 -34 -37 -27 -51 -32 -61 -23 -10 9
-11 7 -6 -10 7 -22 -14 -47 -22 -25 -2 7 -8 12 -13 12 -17 0 15 -39 36 -44 12
-3 27 -17 33 -31 10 -22 9 -25 -8 -25 -26 0 -33 -15 -13 -31 13 -11 17 -11 21
-1 3 10 7 10 18 1 8 -6 14 -8 15 -3 0 5 4 0 8 -10 7 -18 8 -18 29 4 20 22 22
22 22 4 0 -13 3 -15 8 -6 9 13 42 7 42 -8 0 -14 -29 -32 -41 -25 -8 6 -8 2 0
-14 7 -12 9 -26 6 -31 -13 -21 8 -9 34 19 20 21 25 34 19 45 -5 9 -6 21 -3 26
9 14 32 12 38 -2 4 -10 6 -10 6 0 1 7 15 12 36 12 19 0 35 4 35 10 0 5 -7 7
-15 4 -9 -4 -15 0 -15 7 0 11 -2 11 -9 0 -7 -12 -13 -12 -24 -3 -7 7 -16 10
-18 7 -3 -2 -5 5 -5 15 0 11 4 20 9 20 4 0 6 3 4 8 -3 4 15 7 39 7 32 0 43 -4
39 -13 -3 -8 0 -10 8 -5 13 8 22 10 79 16 24 3 42 -1 49 -9 13 -16 39 -19 39
-4 0 6 14 -2 31 -17 52 -46 59 -54 54 -63 -3 -4 2 -10 10 -14 21 -8 19 -37 -4
-43 -24 -6 -16 -33 9 -33 21 0 35 -29 21 -43 -6 -6 -4 -26 5 -55 8 -28 10 -50
4 -56 -5 -5 -4 -16 2 -26 15 -24 2 -70 -21 -70 -13 0 -18 -8 -18 -30 0 -16 6
-31 14 -34 20 -8 16 -40 -8 -54 -12 -8 -18 -9 -14 -3 7 12 -4 14 -50 11 -16
-1 -31 -5 -33 -10 -1 -4 -27 -2 -56 5 -32 8 -59 9 -67 4 -21 -13 -77 -11 -82
4 -4 8 -12 4 -25 -12 -11 -13 -24 -21 -31 -17 -16 10 -53 -3 -45 -16 4 -7 -2
-8 -17 -3 -24 8 -24 7 -6 -13 18 -20 18 -20 -2 -15 -16 4 -20 2 -16 -10 5 -10
-9 -21 -49 -38 -31 -12 -56 -26 -56 -29 0 -10 239 -6 272 4 16 4 25 12 22 17
-3 5 -10 6 -16 3 -6 -4 -8 -2 -5 4 4 5 16 8 27 5 11 -3 20 -1 20 5 0 6 21 13
48 17 66 8 122 24 122 35 0 5 12 7 28 6 15 -2 32 -4 39 -5 7 -1 10 -8 6 -18
-11 -33 -36 -53 -65 -53 -15 0 -28 -4 -28 -9 0 -12 45 -22 64 -15 9 3 16 2 17
-2 0 -5 2 -19 3 -32 2 -18 -3 -24 -25 -29 -34 -7 -45 -29 -20 -42 10 -6 21 -8
24 -5 3 3 10 -4 16 -15 10 -17 8 -23 -11 -35 -13 -7 -34 -17 -48 -22 l-25 -7
30 -9 c17 -5 36 -10 43 -10 7 -1 11 -13 10 -29 -1 -15 -5 -26 -9 -23 -4 2 -12
-3 -17 -12 -5 -9 -12 -15 -15 -15 -20 3 -19 0 1 -15 12 -8 26 -13 31 -9 6 3 9
-12 8 -34 -2 -31 -5 -37 -17 -31 -8 4 -47 8 -87 8 -60 1 -71 -1 -67 -13 4 -8
13 -15 22 -15 12 0 13 -3 4 -12 -9 -9 -15 -8 -25 7 -8 10 -19 15 -25 11 -6 -4
-20 -1 -30 5 -18 11 -57 8 -177 -15 -5 -1 -15 -5 -22 -9 -7 -5 -21 1 -33 13
-15 15 -27 19 -47 14 -18 -5 -24 -4 -19 5 4 6 1 11 -7 11 -7 0 -14 7 -14 15 0
8 4 15 8 15 10 0 6 20 -9 48 -7 12 -10 27 -7 32 3 5 0 12 -5 15 -8 5 -6 13 5
25 17 19 11 50 -10 50 -15 0 -45 -27 -45 -40 0 -5 5 -12 10 -15 15 -9 12 -25
-5 -25 -8 0 -15 8 -16 18 0 14 -2 14 -9 -3 -5 -13 -3 -24 6 -31 23 -19 17 -35
-11 -28 -19 5 -25 2 -25 -9 0 -9 5 -19 10 -22 24 -15 8 -31 -31 -32 -22 0 -42
-2 -44 -4 -1 -2 1 -28 6 -58 8 -54 26 -78 43 -61 4 4 15 6 22 3 9 -3 14 2 14
16 0 27 17 27 25 1 5 -15 15 -20 39 -20 38 0 47 -6 39 -26 -6 -16 -53 -19 -53
-4 0 6 -10 10 -23 10 -16 0 -23 -6 -24 -20 -1 -11 2 -20 8 -20 5 0 9 6 9 13 1
8 5 7 13 -4 7 -9 24 -15 38 -15 18 1 25 -3 22 -11 -3 -7 -17 -13 -32 -13 -35
0 -44 -9 -27 -25 16 -16 83 -45 89 -39 10 11 58 14 52 4 -3 -5 0 -10 7 -11 50
-2 92 -12 99 -23 9 -12 80 -15 109 -4 18 7 27 5 35 -4 7 -11 30 -13 88 -11 56
3 77 1 72 -7 -4 -6 -1 -18 6 -26 15 -19 73 -11 97 12 13 13 16 12 26 -8 13
-27 46 -37 46 -14 0 8 -7 22 -16 31 -22 21 -10 45 22 45 21 0 24 -3 15 -14 -9
-10 -7 -16 5 -27 13 -11 17 -10 25 2 5 8 7 19 5 26 -8 20 66 43 109 33 22 -5
45 -5 56 1 11 5 28 14 39 19 11 6 27 10 35 10 8 0 15 6 15 14 0 8 -8 13 -17
12 -12 0 -16 5 -14 14 2 8 6 30 9 48 4 31 24 43 37 22 3 -5 12 -10 18 -10 7 0
3 8 -9 18 -29 23 -34 44 -18 67 11 15 11 21 1 28 -9 7 -9 10 1 14 21 8 13 24
-18 35 -25 8 -28 13 -19 24 7 8 19 14 28 13 9 -1 23 1 31 4 8 3 24 8 35 10 12
3 7 5 -12 6 -18 0 -33 5 -33 10 0 5 -13 12 -30 16 -36 8 -39 32 -5 45 28 11
24 40 -5 40 -27 0 -34 17 -10 25 11 3 20 12 20 20 0 8 9 17 20 20 31 10 24 23
-27 47 -33 15 -42 23 -30 26 24 5 27 50 4 64 -9 6 -9 8 1 8 6 0 12 4 12 9 0 5
-10 7 -22 3 -17 -4 -20 -2 -15 12 4 10 7 20 7 22 0 2 7 4 15 4 9 0 18 7 22 16
4 11 8 12 13 4 5 -8 10 -9 14 -2 3 6 -16 24 -44 41 -27 17 -50 35 -50 41 0 5
3 9 8 9 16 -3 72 14 72 23 0 4 -14 11 -31 15 -27 5 -30 9 -23 32 3 14 6 31 5
36 -1 6 -2 24 -4 40 -1 17 -6 33 -11 37 -6 4 -4 13 3 22 10 12 10 16 2 16 -7
0 -9 5 -6 10 3 6 -3 10 -15 10 -19 0 -20 1 -6 16 17 16 21 35 9 33 -39 -6 -79
12 -68 31 6 9 9 9 16 -1 7 -12 9 -12 9 0 0 8 8 20 18 28 16 14 16 14 -1 9 -51
-16 -67 -18 -67 -6 0 7 6 10 13 7 8 -3 19 -2 24 1 13 8 5 62 -8 62 -5 0 -9 9
-9 21 0 18 -4 20 -25 15 -19 -5 -25 -2 -25 9 0 10 -5 13 -12 9 -6 -4 -2 8 10
28 l22 36 -25 16 c-37 24 -64 20 -78 -11 -22 -50 -47 -68 -47 -33 0 11 4 20 9
20 5 0 13 13 19 28 8 23 6 32 -14 55 -26 31 -39 34 -48 11 -3 -8 -10 -13 -14
-10 -5 3 -16 -4 -26 -16 -15 -17 -20 -18 -27 -7 -7 11 -9 11 -9 -2 0 -15 -30
-49 -43 -49 -16 0 -5 19 14 25 21 7 21 7 -2 19 -15 7 -25 22 -27 39 -3 28 6
35 25 16 8 -8 10 -2 9 20 -1 18 -10 37 -22 45 -23 16 -96 15 -102 -2 -2 -7 -8
-12 -14 -12 -5 0 -6 9 -3 20 8 26 5 25 -24 -5z m89 -25 c29 -25 20 -34 -36
-35 -36 -1 -44 2 -41 14 2 10 12 15 25 14 14 -2 22 3 22 12 0 19 2 19 30 -5z
m-150 -40 c0 -5 -13 -10 -29 -10 -17 0 -33 5 -36 10 -4 6 8 10 29 10 20 0 36
-4 36 -10z m352 -42 c-7 -7 -12 -8 -12 -2 0 14 12 26 19 19 2 -3 -1 -11 -7
-17z m-422 -9 c11 -19 10 -20 -9 -9 -22 11 -29 30 -11 30 5 0 14 -9 20 -21z
m-50 -4 c11 -13 10 -14 -5 -9 -10 4 -21 1 -26 -7 -6 -11 -9 -8 -9 9 0 25 22
29 40 7z m270 -5 c0 -5 -5 -10 -11 -10 -5 0 -7 5 -4 10 3 6 8 10 11 10 2 0 4
-4 4 -10z m194 -32 c-4 -13 -5 -23 -3 -23 11 -1 -27 -32 -38 -32 -10 0 -10 6
2 24 12 17 12 23 3 24 -7 0 -3 4 10 9 12 5 22 15 22 21 0 7 3 10 6 6 3 -3 3
-16 -2 -29z m-571 -78 c-3 -11 -12 -20 -19 -20 -17 0 -19 37 -1 43 19 7 26 -1
20 -23z m57 0 c0 -5 -2 -10 -4 -10 -3 0 -8 5 -11 10 -3 6 -1 10 4 10 6 0 11
-4 11 -10z m595 0 c3 -5 -1 -10 -9 -10 -9 0 -16 5 -16 10 0 6 4 10 9 10 6 0
13 -4 16 -10z m-575 -24 c0 -2 -7 -7 -16 -10 -8 -3 -12 -2 -9 4 6 10 25 14 25
6z m40 -6 c0 -5 -2 -10 -4 -10 -3 0 -8 5 -11 10 -3 6 -1 10 4 10 6 0 11 -4 11
-10z m640 -130 c0 -5 -2 -10 -4 -10 -3 0 -8 5 -11 10 -3 6 -1 10 4 10 6 0 11
-4 11 -10z m-104 -86 c-3 -9 -6 -18 -6 -20 0 -3 -4 -3 -10 1 -11 7 -2 35 12
35 6 0 7 -7 4 -16z m124 -50 c0 -8 -19 -13 -24 -6 -3 5 1 9 9 9 8 0 15 -2 15
-3z m-590 -344 c0 -5 -4 -10 -10 -10 -5 0 -10 5 -10 10 0 6 5 10 10 10 6 0 10
-4 10 -10z m440 -64 c0 -2 -8 -10 -17 -17 -16 -13 -17 -12 -4 4 13 16 21 21
21 13z m-754 -351 c-2 -5 -10 -9 -19 -9 -13 1 -14 -2 -6 -17 7 -15 6 -21 -5
-25 -19 -7 -38 4 -30 18 4 6 1 14 -6 18 -7 4 -10 12 -7 17 8 13 78 11 73 -2z
m37 -48 c-7 -11 -23 12 -23 32 0 11 4 9 14 -4 8 -11 12 -24 9 -28z m77 13 c0
-13 -11 -13 -30 0 -12 8 -11 10 8 10 12 0 22 -4 22 -10z m-25 -22 c21 -9 35
-28 21 -28 -16 0 -56 21 -56 30 0 13 3 13 35 -2z m462 -60 c-3 -8 -6 -5 -6 6
-1 11 2 17 5 13 3 -3 4 -12 1 -19z m-416 -30 c1 -7 1 -15 1 -18 -1 -9 61 -3
91 9 30 12 33 5 12 -23 -8 -10 -19 -15 -26 -10 -7 4 -10 3 -6 -2 3 -6 1 -16
-4 -24 -8 -12 -12 -12 -16 -2 -2 6 -16 12 -29 12 -14 0 -27 6 -30 14 -3 8 -12
12 -20 9 -17 -6 -18 1 -4 28 12 22 29 25 31 7z m233 -22 c-9 -30 -20 -40 -38
-33 -22 9 -20 25 2 23 12 -1 16 5 15 21 -2 16 1 21 12 16 11 -3 13 -12 9 -27z
m155 20 c7 -8 8 -16 4 -19 -11 -7 -45 18 -36 26 10 11 19 8 32 -7z m-49 -7 c0
-5 -4 -7 -10 -4 -5 3 -10 1 -10 -6 0 -7 -3 -10 -6 -6 -8 7 4 27 17 27 5 0 9
-5 9 -11z m-40 -14 c0 -2 -9 -9 -20 -15 -16 -9 -18 -8 -14 5 5 13 34 22 34 10z
m116 -24 c-3 -4 -23 -5 -45 -3 -23 2 -39 7 -37 11 3 4 23 5 45 3 23 -2 39 -7
37 -11z m311 -13 c-3 -8 -6 -5 -6 6 -1 11 2 17 5 13 3 -3 4 -12 1 -19z m-442
-38 c3 -5 -1 -10 -9 -10 -8 0 -18 5 -21 10 -3 6 1 10 9 10 8 0 18 -4 21 -10z
m132 -13 c4 -7 0 -8 -11 -4 -10 4 -24 7 -32 7 -8 0 -14 4 -14 9 0 11 49 1 57
-12z"/>
<path d="M9796 5031 c-3 -5 -28 -14 -56 -21 -51 -12 -62 -23 -35 -34 26 -10
16 -21 -17 -21 -18 0 -38 7 -45 15 -10 13 -12 13 -18 -3 -4 -9 -2 -24 5 -32 9
-10 9 -15 1 -15 -6 0 -11 5 -11 10 0 14 -55 12 -93 -3 -18 -8 -38 -12 -44 -10
-7 3 -13 -1 -13 -7 0 -7 -9 -23 -20 -37 -11 -14 -17 -30 -13 -37 3 -6 2 -8 -2
-3 -9 7 -55 -30 -55 -45 0 -4 9 -8 19 -8 30 0 33 -15 6 -38 -14 -12 -27 -17
-30 -11 -8 13 -25 2 -25 -17 0 -8 5 -12 10 -9 6 3 10 -1 10 -9 0 -18 16 -21
25 -5 4 5 12 8 18 6 7 -2 20 0 29 5 10 4 31 10 49 12 17 2 38 11 47 20 15 15
13 16 -21 16 -26 0 -37 4 -37 15 0 18 21 20 37 4 9 -9 16 -8 27 4 9 9 16 19
16 23 0 11 -34 33 -52 34 -10 0 -17 5 -15 11 1 6 -4 14 -11 16 -8 3 -10 -1 -6
-11 4 -11 1 -16 -10 -16 -9 0 -16 4 -16 8 0 15 28 47 35 40 4 -4 16 -3 27 3
16 8 21 5 31 -20 10 -22 16 -28 27 -21 13 8 13 11 -2 22 -24 18 -26 40 -5 43
14 3 16 -1 12 -16 -4 -10 -2 -19 4 -19 5 0 9 -13 9 -29 -1 -15 2 -32 5 -38 10
-16 159 -8 171 10 14 18 67 20 59 1 -3 -8 10 -17 39 -25 46 -13 88 -44 88 -65
0 -18 36 -27 59 -15 14 8 20 7 24 -3 3 -8 21 -17 39 -21 45 -10 51 -15 37 -31
-6 -8 -9 -17 -6 -21 4 -3 -1 -12 -11 -19 -16 -13 -15 -14 6 -20 12 -3 23 -9
23 -13 9 -45 6 -51 -30 -51 -34 -1 -35 -1 -13 -13 12 -7 20 -16 16 -19 -3 -4
4 -11 15 -18 20 -10 20 -12 6 -34 -9 -13 -25 -26 -36 -29 -27 -7 -15 -27 16
-27 13 0 25 -6 28 -12 6 -19 -4 -49 -15 -42 -5 3 -15 0 -23 -6 -17 -14 1 -51
22 -43 18 7 16 -2 -4 -34 -13 -19 -14 -28 -5 -31 19 -6 15 -70 -5 -80 -10 -5
-24 -7 -30 -5 -7 3 -13 -3 -13 -12 0 -9 6 -15 13 -14 30 4 37 -3 37 -34 0 -30
-4 -34 -37 -44 l-38 -10 33 -12 c37 -15 43 -44 12 -61 -16 -9 -18 -14 -8 -29
6 -11 18 -17 25 -14 9 3 11 0 7 -10 -3 -9 -12 -13 -19 -11 -7 3 -18 -4 -25
-15 -9 -18 -17 -20 -53 -15 -38 6 -41 5 -27 -10 13 -13 48 -23 98 -25 20 -1
14 -25 -13 -45 -20 -15 -23 -22 -14 -33 9 -10 8 -18 -5 -31 -9 -10 -13 -22 -9
-25 9 -10 -29 -37 -45 -32 -20 7 -26 -23 -8 -40 9 -9 16 -20 16 -24 0 -4 14
-6 30 -3 22 3 30 0 30 -11 0 -8 -7 -17 -15 -21 -8 -3 -15 -14 -15 -24 0 -29
-24 -44 -65 -40 -35 3 -35 4 -20 25 13 18 20 21 40 13 20 -7 25 -6 25 5 0 11
-13 15 -52 15 -29 0 -70 5 -92 11 -24 7 -42 7 -48 1 -6 -6 -26 -3 -54 7 -39
14 -46 14 -54 1 -7 -11 -13 -12 -32 -2 -13 7 -40 10 -62 8 -21 -2 -47 -1 -57
1 -22 6 -25 30 -5 35 21 5 1 48 -23 48 -22 0 -23 30 0 39 8 3 15 13 17 21 2 8
7 16 11 18 5 1 6 14 3 27 -4 23 19 60 31 49 3 -3 11 3 18 13 8 13 19 18 35 15
37 -7 28 11 -13 29 -36 16 -39 16 -62 -2 -24 -20 -71 -26 -71 -10 0 10 -19 9
-37 -2 -9 -6 -13 -1 -13 17 0 27 7 30 65 26 17 -1 33 -6 36 -11 3 -6 11 -3 19
6 10 12 10 15 -5 15 -11 0 -15 5 -11 15 3 8 1 15 -4 15 -5 0 -2 13 8 29 9 16
20 27 24 25 14 -9 48 7 48 21 0 15 22 25 55 25 17 0 25 -6 27 -22 2 -12 9 -23
16 -26 7 -2 12 0 11 5 -4 22 3 25 21 8 14 -13 23 -15 32 -7 7 5 21 11 31 13
16 4 16 6 4 23 -10 14 -19 17 -33 11 -24 -11 -74 -9 -86 3 -12 12 -107 -6
-125 -24 -8 -8 -18 -12 -23 -9 -11 7 -33 -22 -26 -33 5 -9 -29 -26 -47 -23
-11 2 -46 -41 -47 -57 0 -9 -10 -11 -35 -6 -23 4 -35 2 -35 -5 0 -6 6 -11 13
-11 6 -1 2 -6 -10 -13 -12 -7 -21 -16 -21 -22 0 -5 -9 -15 -21 -21 -33 -17
-39 -27 -11 -19 14 4 28 12 32 18 4 7 11 7 21 -1 11 -9 19 -8 37 8 13 11 26
17 29 14 3 -4 0 -9 -6 -11 -18 -6 -16 -23 2 -23 12 0 11 -4 -5 -20 -22 -22
-60 -26 -78 -8 -9 9 -15 9 -23 1 -6 -6 -17 -9 -24 -7 -7 3 -16 0 -20 -6 -4 -6
6 -15 25 -21 25 -9 28 -14 19 -25 -9 -12 -8 -17 5 -27 17 -12 17 -14 0 -28
-10 -7 -15 -9 -11 -2 4 6 -7 19 -28 32 -32 19 -54 14 -40 -9 3 -5 2 -10 -3
-10 -14 0 -32 -56 -22 -66 5 -5 5 -29 0 -54 -5 -28 -4 -50 2 -57 5 -7 7 -17 3
-22 -3 -6 3 -18 15 -28 11 -10 20 -21 20 -25 0 -5 9 -28 21 -52 15 -33 27 -45
48 -49 16 -3 35 -12 42 -20 8 -7 22 -16 32 -20 10 -4 15 -11 12 -17 -3 -5 1
-10 9 -10 20 0 21 19 1 26 -27 11 -17 33 13 30 15 -2 33 1 40 7 9 7 11 6 6 -7
-4 -11 -1 -16 10 -16 9 0 16 -5 16 -11 0 -5 -4 -8 -9 -5 -12 8 -27 -14 -28
-40 -1 -16 8 -23 43 -33 24 -7 51 -10 60 -7 10 4 25 -1 37 -11 13 -12 21 -14
24 -7 3 8 15 9 38 4 23 -5 43 -3 65 8 30 14 33 14 42 -1 11 -21 28 -22 28 -3
0 12 12 14 58 10 31 -2 66 -4 77 -4 10 -1 24 -5 31 -11 10 -8 35 -10 124 -9
14 0 36 0 49 0 18 0 22 4 18 20 -6 24 8 26 29 5 20 -19 34 -19 34 1 0 13 5 12
27 -6 l27 -21 23 24 c39 38 12 77 -29 40 -15 -13 -23 -14 -43 -5 -17 8 -33 8
-50 2 -20 -8 -27 -6 -35 10 -6 11 -7 21 -3 21 4 1 13 2 18 4 6 1 16 3 24 3 10
2 12 11 8 32 -8 39 7 46 35 15 12 -14 28 -23 35 -21 7 3 10 -1 7 -9 -4 -9 4
-13 30 -13 26 0 37 5 41 18 3 11 12 17 20 14 20 -8 27 -34 13 -51 -9 -11 -9
-16 3 -24 8 -5 19 -9 26 -9 6 0 18 -7 27 -15 8 -8 22 -12 30 -9 22 8 20 24 -3
24 -10 0 -24 7 -31 15 -7 8 -16 12 -21 9 -5 -3 -9 0 -9 7 0 7 10 9 29 6 19 -4
31 -2 34 6 2 7 17 12 33 12 21 0 30 5 32 20 2 11 9 25 15 30 19 16 19 43 0 48
-14 4 -12 5 5 6 20 1 21 3 11 24 -7 12 -18 27 -25 32 -7 6 -14 17 -16 25 -2 8
-9 21 -16 28 -18 20 -9 25 21 11 16 -7 31 -8 41 -2 15 8 14 12 -9 35 -18 19
-22 28 -14 34 8 5 9 3 4 -6 -5 -8 -3 -11 6 -8 8 3 14 16 15 29 0 14 4 31 9 39
5 9 4 15 -3 18 -7 2 -9 9 -5 14 4 7 -1 9 -14 6 -11 -3 -27 1 -37 8 -15 11 -11
13 37 19 37 5 54 11 54 21 0 8 -7 14 -16 12 -18 -3 -41 9 -41 22 0 5 7 16 17
25 16 17 11 27 -21 38 -17 6 19 47 41 47 13 0 23 5 23 10 0 13 -37 13 -45 0
-9 -14 -27 -1 -21 15 3 9 -3 15 -16 17 -30 4 -33 23 -6 36 l23 11 -22 0 c-23
1 -33 21 -11 21 6 0 4 6 -7 13 -20 15 -13 24 33 37 l27 7 -25 11 c-14 5 -31
16 -37 23 -15 19 -5 82 12 75 26 -9 25 24 0 36 -20 9 -22 14 -13 25 6 7 8 16
5 20 -4 3 -2 12 4 20 9 10 8 13 -4 13 -12 0 -14 8 -11 36 4 30 2 35 -11 30 -8
-3 -15 -1 -15 3 0 5 7 11 15 15 22 8 18 25 -7 35 -20 8 -21 10 -5 16 25 10 21
34 -8 45 -14 5 -25 15 -25 22 0 10 -2 10 -9 0 -6 -10 -10 -9 -14 7 -4 16 0 22
20 27 15 4 22 12 19 20 -3 7 -1 16 4 19 21 13 9 27 -16 21 -17 -5 -23 -3 -19
4 3 5 15 10 25 10 13 0 18 5 13 16 -3 8 -12 13 -19 10 -8 -3 -14 -1 -14 4 0 6
7 10 15 10 23 0 18 15 -10 30 -14 7 -25 21 -25 29 0 9 -9 22 -21 29 -20 13
-20 14 -2 27 10 7 15 17 11 21 -4 4 -3 13 3 21 9 10 8 13 -3 13 -8 0 -18 -4
-24 -9 -5 -5 -24 -7 -41 -4 -24 4 -33 11 -33 24 0 19 7 22 45 20 11 0 14 2 8
5 -7 3 -13 12 -13 20 0 13 -38 20 -77 15 -7 -1 -13 3 -13 10 0 6 -10 21 -22
32 l-23 19 23 -6 c12 -4 22 -4 22 1 0 5 -10 9 -22 10 -12 1 -25 9 -30 17 -5 8
-15 13 -22 10 -8 -3 -21 4 -29 16 -9 13 -17 17 -22 11 -3 -6 -1 -11 4 -11 6 0
11 -4 11 -10 0 -6 -10 -5 -25 2 -20 9 -34 9 -59 0 -43 -16 -51 -15 -36 3 9 11
10 18 1 29 -9 10 -7 16 5 27 13 11 17 10 25 -2 6 -10 9 -10 9 -1 0 6 7 12 15
12 8 0 15 4 15 10 0 14 -46 24 -67 15 -10 -5 -24 -7 -32 -6 -7 1 -10 -2 -7 -8
5 -7 -4 -9 -25 -4 l-32 6 6 -48 c6 -41 5 -46 -8 -35 -10 9 -19 9 -27 2 -7 -5
-32 -9 -56 -8 -23 0 -44 -3 -46 -9 -7 -16 -7 32 0 49 3 9 14 16 23 16 9 0 22
9 28 19 10 16 9 20 -10 25 -30 8 -35 7 -41 -3z m-16 -31 c0 -5 -5 -10 -11 -10
-5 0 -7 5 -4 10 3 6 8 10 11 10 2 0 4 -4 4 -10z m-20 -40 c8 -5 11 -10 5 -10
-5 0 -17 5 -25 10 -8 5 -10 10 -5 10 6 0 17 -5 25 -10z m240 -5 c0 -20 -27
-26 -33 -6 -3 11 2 17 14 18 11 1 19 -4 19 -12z m-235 -24 c-4 -3 -10 -6 -13
-7 -4 0 -20 -4 -35 -9 -29 -8 -43 -3 -34 12 3 5 24 9 47 9 22 1 38 -1 35 -5z
m370 -21 c3 -5 1 -10 -4 -10 -6 0 -11 5 -11 10 0 6 2 10 4 10 3 0 8 -4 11 -10z
m-247 -22 c17 1 32 -3 32 -8 0 -6 -13 -10 -29 -10 -16 0 -40 -4 -53 -8 -27
-10 -70 -1 -75 15 -5 15 24 22 62 15 17 -2 45 -4 63 -4z m91 -9 c24 -9 29 -14
19 -20 -25 -17 -58 -10 -58 11 0 23 -2 23 39 9z m220 -15 c17 -37 7 -40 -19
-7 -18 22 -21 24 -16 7 4 -14 2 -21 -7 -21 -8 0 -13 9 -12 21 3 27 2 26 23 26
11 0 24 -12 31 -26z m-511 7 c10 -6 8 -10 -10 -14 -33 -9 -48 -8 -48 2 0 8 13
14 40 20 3 0 11 -3 18 -8z m570 -65 c9 -19 8 -27 -4 -36 -20 -18 -42 3 -36 35
6 32 26 32 40 1z m-804 -11 c-4 -8 -10 -12 -15 -9 -11 6 -2 24 11 24 5 0 7 -7
4 -15z m496 -25 c0 -5 -2 -10 -4 -10 -3 0 -8 5 -11 10 -3 6 -1 10 4 10 6 0 11
-4 11 -10z m51 -4 c11 -1 19 -4 19 -8 0 -5 0 -12 0 -17 0 -18 -37 -18 -48 0
-15 24 -15 42 -1 33 7 -4 20 -7 30 -8z m-536 -6 c3 -5 -1 -10 -10 -10 -9 0
-13 5 -10 10 3 6 8 10 10 10 2 0 7 -4 10 -10z m595 -9 c0 -5 -7 -12 -16 -15
-14 -5 -15 -4 -4 9 14 17 20 19 20 6z m310 -81 c0 -4 -9 -6 -20 -3 -11 3 -20
1 -20 -5 0 -5 -9 -12 -20 -15 -34 -9 -22 18 13 29 33 10 47 9 47 -6z m-56 -98
c5 -9 -22 -48 -29 -41 -2 3 -2 15 2 27 5 22 18 29 27 14z m76 -108 c0 -8 -4
-12 -10 -9 -5 3 -10 10 -10 16 0 5 5 9 10 9 6 0 10 -7 10 -16z m-60 -44 c0 -5
-12 -10 -27 -10 -22 0 -25 2 -13 10 20 13 40 13 40 0z m-80 -53 c0 -19 -10
-27 -26 -20 -21 8 -17 33 6 33 11 0 20 -6 20 -13z m46 -7 c8 0 14 5 14 12 0 8
6 6 17 -5 9 -9 15 -19 12 -21 -9 -9 -63 10 -65 22 -1 7 0 8 3 2 2 -5 11 -10
19 -10z m-96 -185 c0 -8 -4 -15 -10 -15 -5 0 -10 7 -10 15 0 8 5 15 10 15 6 0
10 -7 10 -15z m183 -200 c4 -8 2 -17 -3 -20 -6 -4 -10 -4 -10 -1 0 2 -3 11 -6
20 -3 9 -2 16 4 16 5 0 12 -7 15 -15z m-863 -39 c0 -11 -19 -15 -25 -6 -3 5 1
10 9 10 9 0 16 -2 16 -4z m-155 -194 c0 -18 -20 -15 -23 4 -3 10 1 15 10 12 7
-3 13 -10 13 -16z m-12 -102 c-4 -13 -14 -20 -31 -20 l-25 0 23 20 c13 11 26
20 31 20 4 0 5 -9 2 -20z m927 -60 c0 -5 -7 -7 -15 -4 -8 4 -15 8 -15 10 0 2
7 4 15 4 8 0 15 -4 15 -10z m109 -6 c-9 -11 -7 -14 12 -15 16 0 19 -3 9 -6 -8
-4 -21 -13 -27 -22 -11 -14 -12 -13 -10 9 1 16 -3 24 -10 23 -7 -2 -13 3 -13
10 0 6 11 13 25 13 21 2 24 -1 14 -12z m-1029 -14 c0 -5 -4 -10 -9 -10 -6 0
-13 5 -16 10 -3 6 1 10 9 10 9 0 16 -4 16 -10z m-80 -75 c0 -8 -4 -15 -10 -15
-5 0 -10 7 -10 15 0 8 5 15 10 15 6 0 10 -7 10 -15z m1120 -11 c0 -14 -6 -32
-14 -40 -8 -7 -17 -19 -19 -26 -4 -10 -7 -10 -15 1 -13 18 -3 51 14 51 8 0 14
9 14 20 0 11 5 20 10 20 6 0 10 -12 10 -26z m-168 -6 c-12 -12 -35 -1 -27 12
3 5 13 6 21 3 10 -4 12 -9 6 -15z m-863 -2 c9 -10 4 -13 -24 -14 -22 -1 -35 3
-35 11 0 17 45 20 59 3z m668 -12 c2 -5 -10 -18 -27 -27 -18 -11 -27 -23 -23
-30 4 -6 -9 -2 -28 9 -27 16 -40 18 -57 11 -16 -7 -26 -7 -34 1 -9 9 -7 12 10
12 12 0 22 5 22 10 0 13 33 13 46 1 13 -14 64 -1 64 16 0 16 22 13 27 -3z
m177 -50 c26 -10 18 -31 -14 -36 -32 -5 -39 9 -18 30 14 14 12 14 32 6z m-770
-19 c-6 -14 -42 -31 -50 -22 -11 11 11 37 32 37 16 0 22 -4 18 -15z m356 -5
c0 -5 -2 -10 -4 -10 -3 0 -8 5 -11 10 -3 6 -1 10 4 10 6 0 11 -4 11 -10z m80
-4 c-19 -18 -46 -24 -46 -11 0 6 6 9 13 7 7 -2 13 2 13 8 0 5 8 10 17 10 15 0
15 -2 3 -14z m64 -41 c7 -36 22 -47 55 -38 12 3 21 1 21 -6 0 -12 -3 -12 -97
-16 -57 -2 -61 -1 -57 18 5 28 9 30 33 17 17 -9 21 -8 21 5 0 8 -4 15 -9 15
-5 0 -8 11 -8 24 0 37 34 22 41 -19z m92 29 c-3 -17 -24 -34 -44 -34 -7 0 -10
5 -7 10 3 6 -1 10 -9 10 -9 0 -16 5 -16 11 0 6 7 9 15 6 8 -4 16 -3 19 1 9 15
44 11 42 -4z m310 -22 c-10 -10 -29 15 -21 28 6 9 10 8 17 -4 6 -10 7 -20 4
-24z m-636 -2 c0 -5 -5 -10 -11 -10 -5 0 -7 5 -4 10 3 6 8 10 11 10 2 0 4 -4
4 -10z m620 -20 c0 -5 -4 -10 -10 -10 -5 0 -10 5 -10 10 0 6 5 10 10 10 6 0
10 -4 10 -10z m-555 -10 c4 -6 -6 -10 -22 -9 -25 0 -26 1 -8 9 11 5 21 9 22 9
1 1 5 -3 8 -9z m54 -20 c-12 -32 -29 -32 -29 0 0 16 11 27 32 29 4 1 2 -12 -3
-29z m176 -30 c3 -5 1 -10 -4 -10 -6 0 -11 5 -11 10 0 6 2 10 4 10 3 0 8 -4
11 -10z"/>
<path d="M6980 5013 c0 -6 -9 -13 -20 -16 -11 -3 -18 -1 -14 4 6 10 -7 12 -30
3 -9 -3 -13 -11 -10 -18 3 -6 -1 -3 -9 7 -22 26 -28 21 -22 -20 2 -21 7 -56 9
-78 3 -22 9 -60 15 -85 5 -25 12 -74 16 -110 3 -36 11 -84 16 -108 9 -41 18
-94 24 -137 5 -40 27 -152 42 -212 11 -45 12 -66 4 -81 -8 -15 -8 -21 1 -24 7
-3 12 -23 12 -46 1 -23 4 -42 8 -42 4 0 5 -6 2 -14 -3 -8 -1 -23 4 -32 6 -11
7 -27 2 -40 -6 -15 -5 -26 5 -34 7 -6 16 -39 20 -73 4 -34 14 -81 22 -105 7
-23 12 -46 9 -51 -3 -4 3 -25 14 -46 11 -22 21 -48 23 -59 1 -12 6 -27 10 -33
6 -9 2 -13 -12 -13 -12 0 -21 -4 -21 -10 0 -5 6 -10 13 -10 21 0 57 -44 57
-71 0 -29 15 -53 32 -55 7 -1 18 -2 25 -3 7 0 10 -8 7 -16 -4 -8 -1 -15 5 -15
6 0 11 8 11 18 0 10 6 19 13 19 6 0 20 4 29 8 24 10 60 -61 38 -75 -8 -5 -11
-12 -7 -16 9 -10 88 -13 82 -3 -3 4 -1 10 5 14 18 11 1 24 -29 20 -25 -3 -30
0 -34 22 -10 53 16 72 34 26 l11 -28 12 26 c6 14 17 24 24 22 6 -3 10 -9 6
-14 -7 -12 17 -11 35 0 12 8 13 12 1 25 -11 14 -10 16 6 9 10 -4 24 -14 31
-22 7 -10 12 -11 13 -4 0 6 3 18 6 26 3 10 -7 20 -33 30 -35 15 -36 17 -15 23
12 3 22 12 22 20 0 10 9 12 32 7 22 -4 29 -3 24 5 -4 7 -14 12 -22 12 -8 0
-14 5 -14 10 0 6 4 10 8 10 4 0 8 9 9 19 1 16 -5 19 -38 17 -52 -1 -50 10 3
17 23 3 45 13 50 21 5 9 16 16 23 16 20 0 19 6 -4 29 -10 10 -29 17 -44 15
-29 -3 -45 11 -23 19 7 3 27 4 42 2 16 -2 39 3 52 11 25 16 30 37 7 28 -8 -4
-15 -1 -15 5 0 6 -7 11 -15 11 -17 0 -19 9 -5 30 8 13 10 13 10 0 0 -10 8 -6
26 12 24 24 26 28 11 42 -19 20 -65 23 -95 7 -18 -10 -23 -9 -28 3 -3 8 -1 23
5 34 6 11 7 22 4 26 -3 3 -1 6 6 6 6 0 14 -6 16 -12 3 -7 16 -14 30 -14 19 -2
25 3 25 18 0 10 5 16 10 13 6 -3 10 -17 10 -30 0 -13 5 -27 11 -31 17 -10 29
17 18 39 -8 14 -6 24 8 40 11 14 12 18 3 12 -13 -9 -24 -10 -53 -6 -5 0 -2 8
7 16 16 16 12 41 -7 48 -7 2 -4 3 5 2 18 -3 28 13 24 41 -3 20 -52 38 -62 23
-3 -5 -12 -2 -21 6 -11 12 -12 19 -4 29 17 20 59 17 67 -6 4 -13 11 -17 24
-13 12 4 19 -1 23 -16 4 -14 10 -18 19 -14 7 4 1 -3 -13 -16 -22 -20 -24 -28
-16 -46 14 -33 27 -28 22 7 -3 28 -1 30 27 30 l30 0 -21 33 -20 33 35 13 c28
10 33 15 24 26 -6 8 -17 12 -25 9 -7 -3 -16 -1 -20 5 -3 6 1 11 9 11 9 0 17 9
17 20 1 11 2 28 3 38 0 9 9 20 18 24 22 9 24 28 2 28 -14 0 -13 5 5 33 11 17
28 31 36 31 19 -2 19 6 -1 20 -21 16 -5 82 19 80 10 -1 17 6 17 16 0 13 -5 17
-20 13 -16 -4 -19 -2 -14 13 4 11 10 24 13 29 7 12 10 31 14 71 3 33 32 73 39
52 2 -6 10 -8 17 -4 9 6 8 11 -6 22 -10 7 -13 14 -8 14 6 0 3 5 -5 10 -13 8
-12 10 4 10 11 0 17 3 13 6 -3 4 0 18 7 33 7 14 11 32 9 39 -3 6 0 12 6 12 6
0 15 19 21 43 6 23 14 50 17 61 4 14 2 16 -8 10 -22 -13 -38 -13 -64 0 -22 12
-23 15 -10 32 20 27 19 31 -15 36 -19 3 -30 0 -30 -8 0 -6 -7 -15 -16 -18 -24
-9 -29 -7 -16 6 7 7 12 19 12 27 0 21 -19 1 -23 -25 -1 -11 -13 -34 -25 -52
-13 -18 -20 -32 -16 -32 4 0 0 -8 -8 -17 -8 -10 -20 -33 -28 -50 -7 -18 -17
-30 -23 -26 -6 3 -7 1 -3 -6 4 -7 -2 -32 -13 -56 -16 -35 -27 -45 -45 -45 -25
0 -51 -22 -39 -33 3 -4 19 -7 34 -7 27 0 28 -1 17 -31 -8 -22 -15 -28 -27 -24
-9 4 -23 10 -31 13 -8 3 -3 -5 12 -19 16 -13 29 -35 30 -49 3 -21 -2 -26 -24
-28 -31 -4 -34 -11 -15 -31 8 -10 8 -12 0 -7 -6 3 -15 1 -18 -5 -4 -5 2 -13
12 -15 13 -4 19 -13 18 -27 -1 -17 -11 -25 -46 -34 -24 -6 -46 -12 -49 -13 -3
-1 13 -7 35 -14 37 -11 40 -14 39 -46 -3 -55 -16 -124 -27 -138 -7 -9 -12 -8
-23 5 -10 15 -15 16 -25 5 -11 -10 -7 -15 19 -24 28 -11 32 -16 27 -38 -4 -14
-13 -32 -21 -41 -11 -12 -11 -21 -1 -48 10 -28 10 -34 -6 -42 -18 -11 -24 -49
-7 -49 6 0 10 -14 10 -31 0 -22 -5 -32 -20 -36 -24 -6 -25 -12 -5 -27 18 -13
9 -56 -11 -56 -8 0 -14 -4 -14 -9 0 -14 -34 -19 -60 -9 l-25 9 30 24 29 24
-22 20 c-13 10 -24 28 -25 39 -1 13 -6 18 -16 14 -10 -4 -13 -1 -8 11 3 9 2
19 -4 23 -6 3 -3 11 8 19 22 17 8 35 -31 39 -37 4 -43 14 -12 22 31 7 32 12 9
31 -10 8 -13 12 -6 9 6 -4 14 -2 18 4 3 5 2 10 -4 10 -6 0 -8 7 -5 15 4 10 0
15 -12 15 -16 0 -17 2 -4 11 11 8 6 9 -20 5 -27 -5 -30 -4 -14 3 34 15 37 30
12 52 -16 14 -19 22 -11 25 10 4 9 9 -2 20 -8 8 -12 21 -9 28 3 7 -2 16 -11
20 -9 3 -13 10 -10 16 4 6 11 8 16 5 5 -4 9 -1 9 5 0 6 -7 13 -15 16 -8 4 -15
14 -15 23 0 10 -12 23 -27 30 -20 9 -23 15 -15 23 17 17 15 28 -5 28 -15 0
-15 1 0 18 15 16 15 20 1 47 -9 17 -16 43 -16 59 1 20 -5 30 -19 33 -20 6 -28
25 -8 21 26 -6 16 19 -16 40 -44 28 -49 28 -29 -3 17 -27 20 -24 -31 -40 -8
-2 -17 0 -20 5 -4 6 1 10 11 10 14 0 16 7 11 40 -6 45 6 61 23 30 12 -22 45
-27 56 -9 3 6 1 15 -6 19 -6 4 -11 11 -10 16 0 5 -8 10 -20 12 -11 2 -20 8
-20 13 0 16 -18 10 -23 -8 -4 -14 -5 -13 -6 4 -1 14 6 24 19 28 18 6 20 12 14
53 -3 26 -6 55 -6 65 1 9 -3 17 -8 17 -5 0 -10 8 -12 17 -3 14 -14 18 -53 19
-28 1 -56 -3 -62 -8 -10 -8 -13 -6 -13 6 0 11 5 14 12 10 8 -5 9 -2 5 9 -3 9
-3 16 1 15 4 -1 15 2 25 7 12 5 25 1 40 -11 12 -10 19 -15 15 -10 -4 5 -3 16
2 26 7 13 2 24 -20 45 -17 16 -30 24 -30 18z m873 -157 c7 -17 -17 -53 -26
-39 -8 12 3 53 13 53 4 0 10 -6 13 -14z m-826 -63 c-4 -3 -2 -12 4 -20 9 -10
7 -13 -10 -13 -11 0 -21 4 -21 8 0 9 21 32 29 32 2 0 1 -3 -2 -7z m777 -68
c-4 -8 -8 -15 -10 -15 -2 0 -4 7 -4 15 0 8 4 15 10 15 5 0 7 -7 4 -15z m-794
-9 c0 -3 -7 -12 -16 -20 -14 -15 -14 -16 0 -16 9 0 16 5 16 12 0 9 3 9 11 1
17 -17 1 -35 -24 -27 -22 7 -37 22 -37 38 0 4 7 6 15 3 8 -4 17 -2 20 3 6 10
15 13 15 6z m774 -125 c-4 -3 -9 0 -11 7 -3 6 -9 10 -14 6 -5 -3 -9 5 -9 18
l1 23 20 -24 c11 -13 17 -27 13 -30z m-744 20 c0 -9 -24 -21 -42 -21 -6 0 -6
6 2 15 14 16 40 20 40 6z m705 -57 c0 -15 -6 -29 -14 -32 -10 -3 -12 1 -8 19
4 13 7 33 7 44 0 13 3 16 8 8 4 -7 8 -25 7 -39z m-735 -8 c0 -3 -4 -8 -10 -11
-5 -3 -10 -1 -10 4 0 6 5 11 10 11 6 0 10 -2 10 -4z m626 -21 c-3 -9 -11 -13
-16 -10 -8 5 -7 11 1 21 14 18 24 11 15 -11z m-553 -10 c15 3 27 1 27 -4 0 -5
-11 -11 -24 -13 -25 -5 -46 7 -46 27 0 5 4 5 8 -2 5 -7 19 -10 35 -8z m650
-21 c10 -10 -22 -64 -38 -64 -20 0 -19 19 0 26 10 4 13 13 10 25 -6 18 13 27
28 13z m-618 -14 c-3 -5 -11 -10 -16 -10 -6 0 -7 5 -4 10 3 6 11 10 16 10 6 0
7 -4 4 -10z m-25 -50 c0 -5 -5 -10 -11 -10 -5 0 -7 5 -4 10 3 6 8 10 11 10 2
0 4 -4 4 -10z m530 -10 c26 -26 25 -40 -1 -40 -14 0 -19 5 -16 15 4 8 2 17 -3
20 -10 6 -14 25 -5 25 3 0 14 -9 25 -20z m-570 0 c0 -5 -2 -10 -4 -10 -3 0 -8
5 -11 10 -3 6 -1 10 4 10 6 0 11 -4 11 -10z m660 -36 c0 -8 -4 -14 -10 -14 -5
0 -10 9 -10 21 0 11 5 17 10 14 6 -3 10 -13 10 -21z m-570 -4 c0 -5 -6 -10
-14 -10 -8 0 -18 5 -21 10 -3 6 3 10 14 10 12 0 21 -4 21 -10z m25 -20 c3 -5
-3 -18 -15 -30 -11 -11 -20 -27 -20 -35 0 -18 -45 -21 -56 -4 -4 7 -1 10 7 7
23 -8 49 11 49 36 0 33 21 49 35 26z m-101 -28 c-1 -7 -2 -24 -2 -39 -2 -25
-3 -26 -18 -11 -11 11 -14 23 -9 35 5 10 7 22 6 26 -1 5 4 7 11 5 7 -3 13 -10
12 -16z m46 -9 c0 -13 -3 -13 -15 -3 -8 7 -12 16 -9 21 8 13 24 1 24 -18z
m500 -28 c-13 -14 -27 -25 -32 -25 -11 0 -10 38 2 45 6 3 10 0 10 -7 0 -8 5
-7 17 5 26 26 29 10 3 -18z m70 -6 c-14 -26 -18 -24 -12 6 2 14 8 22 13 19 5
-3 5 -14 -1 -25z m-532 -66 c28 -5 32 -9 30 -34 -2 -29 -18 -41 -18 -14 0 8
-5 15 -11 15 -6 0 -8 -8 -5 -17 3 -10 -7 -3 -23 15 -27 31 -30 32 -40 15 -9
-16 -12 -16 -21 -3 -5 8 -10 18 -10 22 0 9 32 17 50 11 8 -3 30 -7 48 -10z
m527 6 c4 -6 -2 -19 -14 -30 -21 -20 -23 -19 -25 11 -3 25 27 39 39 19z m-61
-14 c8 -21 -10 -27 -28 -9 -15 14 -16 13 -16 -15 0 -36 -15 -41 -26 -9 -4 14
-1 25 9 33 22 16 55 16 61 0z m-498 -91 c3 -13 10 -24 15 -24 5 0 6 6 3 14 -3
7 2 16 11 20 30 11 13 -38 -18 -52 -35 -17 -37 -14 -44 37 -5 36 -3 41 11 35
9 -3 19 -17 22 -30z m87 6 c-3 -11 -9 -23 -14 -26 -10 -6 -12 29 -2 39 13 13
21 7 16 -13z m-42 -63 c-10 -9 -11 -8 -5 6 3 10 9 15 12 12 3 -3 0 -11 -7 -18z
m403 -59 c8 -13 7 -21 -3 -30 -10 -11 -12 -8 -9 12 2 19 -1 25 -14 24 -10 -1
-18 3 -18 8 0 15 32 5 44 -14z m-374 -7 c0 -5 -7 -11 -15 -15 -9 -3 -15 0 -15
9 0 8 7 15 15 15 8 0 15 -4 15 -9z m338 -31 c-7 -10 -14 -18 -15 -16 -6 6 9
36 18 36 5 0 4 -9 -3 -20z m-378 -10 c0 -7 -13 -7 -38 -1 -2 1 -1 5 3 11 6 10
35 2 35 -10z m100 6 c0 -2 -7 -6 -15 -10 -8 -3 -15 -1 -15 4 0 6 7 10 15 10 8
0 15 -2 15 -4z m-107 -42 c-4 -12 0 -14 21 -8 16 4 26 2 26 -5 0 -6 -9 -11
-20 -11 -11 0 -20 -4 -20 -10 0 -16 -27 -11 -34 6 -10 25 -7 32 12 37 9 3 18
5 19 6 1 0 0 -6 -4 -15z m399 -111 c25 -7 13 -22 -12 -16 -11 3 -26 0 -34 -6
-10 -9 -16 -9 -21 -1 -10 16 16 42 34 34 9 -3 24 -9 33 -11z m-315 1 c-3 -3
-12 -4 -19 -1 -8 3 -5 6 6 6 11 1 17 -2 13 -5z m-57 -53 c0 -6 -4 -13 -10 -16
-5 -3 -10 1 -10 9 0 9 5 16 10 16 6 0 10 -4 10 -9z m285 -28 c-1 -15 -1 -33 2
-40 8 -20 23 -15 17 5 -5 14 -4 15 5 2 16 -22 13 -30 -9 -30 -11 0 -20 -7 -20
-15 0 -8 -5 -15 -10 -15 -6 0 -8 11 -4 26 5 19 4 25 -5 20 -6 -4 -11 -2 -11 3
0 6 -6 10 -12 9 -7 -2 -12 3 -10 10 1 6 -3 12 -9 12 -27 0 24 32 63 39 3 0 5
-11 3 -26z m-105 -214 c0 -5 -6 -9 -13 -9 -8 0 -14 6 -14 14 0 8 6 12 14 9 7
-3 13 -9 13 -14z m-115 -45 c-14 -13 -28 -24 -30 -24 -9 0 8 36 23 47 27 22
34 2 7 -23z m150 16 c-7 -12 -55 -14 -55 -2 0 4 14 8 30 9 18 1 28 -2 25 -7z
m-85 -10 c13 -8 13 -10 -2 -10 -9 0 -20 5 -23 10 -8 13 5 13 25 0z m130 -10
c0 -5 -2 -10 -4 -10 -3 0 -8 5 -11 10 -3 6 -1 10 4 10 6 0 11 -4 11 -10z
m-148 -32 c-3 -12 -7 -17 -10 -10 -2 6 -10 12 -17 12 -8 0 -17 5 -20 10 -4 6
6 10 23 10 26 0 29 -3 24 -22z"/>
<path d="M9860 5001 c0 -5 5 -13 10 -16 6 -3 10 -2 10 4 0 5 -4 13 -10 16 -5
3 -10 2 -10 -4z"/>
<path d="M6245 4990 c3 -5 8 -10 11 -10 2 0 4 5 4 10 0 6 -5 10 -11 10 -5 0
-7 -4 -4 -10z"/>
<path d="M8010 4975 c0 -8 5 -15 10 -15 6 0 10 7 10 15 0 8 -4 15 -10 15 -5 0
-10 -7 -10 -15z"/>
<path d="M4035 4970 c3 -5 10 -10 16 -10 5 0 9 5 9 10 0 6 -7 10 -16 10 -8 0
-12 -4 -9 -10z"/>
<path d="M8051 4964 c0 -11 3 -14 6 -6 3 7 2 16 -1 19 -3 4 -6 -2 -5 -13z"/>
<path d="M8007 4918 c12 -65 20 -77 52 -76 17 1 28 5 25 9 -3 5 0 17 5 26 8
14 10 4 9 -43 0 -35 5 -74 13 -90 15 -30 14 -84 -1 -84 -4 0 -6 8 -3 19 3 12
-2 20 -16 24 -22 5 -25 -2 -15 -41 5 -16 13 -22 28 -20 13 2 22 -3 24 -14 2
-11 -3 -18 -12 -18 -8 0 -18 -4 -21 -10 -7 -11 13 -52 31 -63 7 -4 11 -20 10
-35 -2 -18 4 -34 21 -49 25 -24 34 -28 32 -15 -3 20 3 22 19 6 16 -17 17 -17
21 7 1 13 8 27 15 31 8 6 8 8 -1 8 -7 0 -24 11 -39 25 l-27 25 27 0 c15 0 25
-4 22 -9 -3 -5 1 -11 9 -15 8 -3 15 -1 15 4 0 5 8 7 18 3 14 -5 14 -3 -3 11
-14 12 -16 19 -7 22 14 7 16 43 2 64 -6 9 -22 13 -48 11 -22 -1 -43 2 -46 8
-4 5 2 9 11 9 25 -1 47 5 55 16 10 14 -2 36 -21 37 -13 0 -12 2 3 8 19 7 19 8
-3 23 -16 11 -18 17 -9 20 9 3 3 15 -19 35 -24 23 -35 27 -45 19 -7 -6 -4 -1
6 12 11 12 14 22 9 22 -6 0 -14 11 -17 24 -6 26 -35 38 -59 24 -12 -6 -22 -3
-37 12 -11 11 -20 22 -20 25 0 3 0 10 0 15 0 6 -4 10 -10 10 -5 0 -7 -14 -3
-32z m153 -218 c0 -5 -4 -10 -10 -10 -5 0 -10 5 -10 10 0 6 5 10 10 10 6 0 10
-4 10 -10z m30 -190 c0 -5 -4 -10 -9 -10 -6 0 -13 5 -16 10 -3 6 1 10 9 10 9
0 16 -4 16 -10z"/>
<path d="M8930 4939 c0 -6 7 -9 15 -5 10 3 15 -1 15 -11 0 -14 3 -14 12 -5 10
10 10 15 -2 22 -20 13 -40 12 -40 -1z"/>
<path d="M10292 4932 c-28 -3 -30 -5 -18 -18 16 -15 52 -19 60 -6 10 16 -10
27 -42 24z"/>
<path d="M7855 4920 c-3 -5 -1 -10 4 -10 6 0 11 5 11 10 0 6 -2 10 -4 10 -3 0
-8 -4 -11 -10z"/>
<path d="M8972 4903 c-18 -3 -36 -11 -39 -19 -3 -8 -9 -14 -15 -14 -5 0 -7 4
-3 9 3 5 1 12 -4 15 -13 8 -21 -20 -10 -31 15 -15 -8 -64 -32 -70 -15 -4 -17
-8 -8 -13 16 -11 -7 -71 -25 -64 -7 3 -19 -2 -26 -11 -12 -14 -11 -18 1 -25
12 -8 11 -15 -5 -45 -11 -19 -23 -35 -28 -35 -4 0 -8 -9 -8 -19 0 -17 -58
-137 -80 -166 -4 -5 -10 -22 -14 -37 -3 -16 -12 -28 -19 -28 -7 0 -26 -13 -41
-29 -21 -22 -24 -30 -13 -34 8 -3 20 0 26 6 10 9 11 5 5 -18 -11 -48 -35 -95
-49 -95 -7 0 -15 -9 -18 -20 -3 -12 -1 -18 5 -14 6 4 8 -2 6 -12 -2 -11 -10
-18 -18 -16 -11 3 -11 0 0 -13 7 -8 10 -18 6 -22 -3 -3 -6 0 -6 8 0 8 -9 1
-20 -16 -12 -19 -16 -33 -10 -41 14 -16 -8 -74 -27 -74 -12 0 -13 3 -4 13 8
10 7 17 -2 26 -16 16 -15 45 3 52 10 4 4 9 -17 13 -18 4 -33 12 -33 17 0 5 -8
9 -18 9 -31 0 -34 13 -10 33 13 10 16 15 8 11 -11 -5 -10 -1 3 13 19 22 8 41
-15 27 -9 -5 -9 -2 1 9 12 15 11 17 -4 17 -12 0 -16 6 -12 20 3 12 0 20 -8 20
-7 0 -16 12 -19 26 -5 17 -12 24 -21 20 -9 -3 -15 1 -15 9 0 9 6 12 15 9 21
-9 9 21 -21 51 -18 18 -22 31 -18 53 8 41 -12 51 -42 19 -27 -29 -32 -46 -9
-27 18 15 34 5 18 -11 -20 -20 -76 -14 -92 10 l-14 22 -12 -28 c-8 -17 -9 -32
-3 -40 6 -7 5 -14 -2 -18 -8 -5 -8 -11 1 -21 19 -24 37 -17 31 12 -4 25 -3 26
22 22 14 -3 26 -1 26 3 0 14 28 10 63 -8 18 -9 26 -18 19 -20 -6 -3 -10 -9 -6
-14 3 -5 1 -9 -5 -9 -5 0 -13 4 -16 10 -3 6 -20 -3 -37 -19 -27 -25 -35 -28
-55 -18 -32 14 -49 -2 -33 -33 6 -12 9 -32 6 -44 -3 -12 1 -34 9 -49 7 -15 16
-41 19 -58 2 -17 16 -54 29 -82 13 -29 34 -79 47 -112 12 -33 30 -76 41 -96
10 -20 19 -44 19 -53 0 -9 3 -16 8 -17 32 -3 65 -9 69 -12 2 -3 -8 -19 -23
-36 -14 -17 -23 -38 -20 -46 7 -20 -3 -45 -19 -45 -7 0 -12 -6 -11 -12 0 -7
-3 -37 -7 -65 -7 -47 -10 -53 -32 -53 -21 0 -24 -4 -22 -29 1 -16 4 -29 7 -28
6 2 10 -8 10 -29 0 -8 -3 -13 -8 -10 -4 2 -23 -3 -42 -11 -29 -14 -32 -17 -15
-21 29 -6 45 -22 45 -43 0 -13 -5 -17 -16 -12 -14 5 -16 1 -12 -20 3 -14 0
-29 -6 -32 -8 -3 -7 -7 1 -11 10 -4 10 -11 2 -25 -5 -11 -14 -17 -19 -14 -5 3
-21 3 -36 -1 -26 -7 -26 -8 -9 -20 17 -13 17 -14 2 -14 -9 0 -17 -3 -17 -6 0
-10 28 -34 39 -34 6 0 11 -4 11 -10 0 -5 -7 -10 -15 -10 -16 0 -21 -16 -5 -22
5 -2 3 -23 -6 -50 -11 -33 -20 -45 -30 -41 -16 6 -46 -26 -37 -40 10 -17 11
-107 0 -107 -6 0 -7 -3 -4 -6 4 -4 -1 -19 -9 -33 -13 -22 -24 -27 -61 -29 -53
-2 -63 -7 -63 -32 0 -26 14 -32 46 -19 20 7 30 7 32 0 2 -6 10 -11 19 -11 12
0 12 -2 -1 -16 -9 -8 -13 -21 -9 -27 4 -6 1 -8 -8 -5 -12 5 -14 -1 -11 -23 7
-45 -5 -73 -38 -91 -37 -21 -39 -38 -5 -38 25 0 25 -2 21 -51 -4 -34 -1 -61 9
-79 8 -15 12 -30 9 -33 -11 -11 17 -47 36 -47 21 0 28 -20 8 -20 -8 0 -7 -4 3
-10 11 -6 15 -18 12 -34 -5 -22 -2 -24 18 -19 13 4 18 8 11 11 -10 3 -10 7 -1
18 16 20 31 17 25 -4 -5 -15 0 -18 29 -19 19 -1 38 3 41 8 3 5 -1 9 -8 9 -7 0
-19 9 -26 21 -7 11 -19 18 -27 16 -21 -9 -26 5 -8 25 18 20 48 25 40 6 -3 -9
8 -14 35 -15 25 -2 41 2 44 11 3 7 16 14 30 13 29 0 39 8 29 23 -5 8 -11 7
-23 -2 -13 -11 -15 -10 -9 5 5 13 1 17 -15 17 -35 0 -8 18 32 22 27 2 35 8 35
22 0 10 9 23 20 27 18 7 18 8 -5 9 -14 1 -19 4 -12 7 6 2 12 11 12 18 0 7 -6
16 -12 18 -7 3 -3 6 10 6 12 1 21 6 20 13 -2 7 11 15 27 18 17 3 31 10 32 16
1 7 -6 10 -16 7 -10 -3 -22 0 -26 7 -4 7 1 14 14 17 22 6 29 33 9 33 -9 1 -7
5 3 13 22 17 22 97 -1 90 -13 -4 -13 -3 0 5 8 6 18 8 22 6 12 -8 49 6 43 16
-3 4 2 11 11 14 22 8 7 28 -19 24 -14 -2 -21 2 -19 11 1 7 -5 19 -14 26 -16
11 -16 14 2 38 10 15 22 27 26 27 3 0 4 9 1 20 -4 14 0 20 11 20 10 0 14 5 11
10 -3 6 3 10 14 10 28 0 35 17 11 25 -11 4 -18 10 -15 15 3 5 0 10 -6 12 -8 3
-7 8 3 18 23 24 30 50 13 50 -8 0 -15 5 -15 10 0 6 7 10 16 10 12 0 14 7 9 30
-5 23 -3 30 9 30 8 0 18 4 21 10 3 5 0 7 -8 4 -8 -3 -14 2 -14 11 0 9 6 14 13
11 19 -7 24 5 12 27 -9 17 -6 24 16 44 15 13 34 23 42 23 24 0 15 29 -11 36
-16 4 -25 13 -25 25 0 10 -3 18 -7 18 -5 -1 -17 0 -28 1 -11 2 2 6 29 9 59 7
71 27 26 43 l-32 11 36 16 c23 11 32 21 26 27 -6 6 -4 19 5 37 13 25 13 26 -5
17 -31 -17 -45 -11 -22 9 12 10 19 21 15 25 -3 3 1 6 10 6 11 0 14 5 11 15 -4
8 -1 22 6 30 7 9 13 28 14 43 1 24 5 27 33 26 37 -2 52 21 23 36 -14 7 -20 7
-20 0 0 -5 -10 -10 -21 -10 -21 0 -21 1 5 25 15 14 24 30 21 35 -3 6 -1 10 5
10 6 0 10 8 8 18 -2 14 3 16 27 14 l30 -4 -22 20 c-28 24 -29 38 -3 45 25 6
27 27 3 27 -11 0 -14 3 -7 8 13 9 32 57 39 97 2 16 9 31 15 33 19 7 10 22 -12
22 -21 1 -21 2 -5 11 14 8 17 18 11 41 -6 28 -4 30 15 25 11 -3 21 -1 21 4 0
5 -4 9 -8 9 -14 0 -8 44 6 53 10 6 10 12 2 22 -8 10 -8 15 0 20 8 5 5 11 -7
21 -15 11 -15 14 -3 15 8 1 18 1 21 1 10 -2 21 47 14 58 -3 5 4 14 15 20 37
20 13 73 -34 73 -14 0 -26 3 -26 8 0 5 5 9 11 9 6 0 9 10 7 23 -2 15 -9 21
-20 19 -10 -2 -18 2 -18 8 0 5 7 10 16 10 10 0 14 5 10 16 -4 10 -2 13 7 8 29
-17 37 -27 29 -38 -5 -6 -4 -20 2 -32 9 -17 16 -19 34 -13 12 5 23 12 23 16 4
22 10 59 11 69 1 6 12 9 25 6 18 -3 22 -1 17 12 -3 9 -13 15 -22 14 -11 -2
-17 6 -18 24 -2 18 1 25 9 22 8 -3 13 5 15 20 1 13 6 34 11 47 5 13 9 29 9 34
1 6 11 12 23 15 21 5 42 33 22 29 -22 -4 -33 3 -33 20 0 11 5 21 12 23 6 2 9
12 5 21 -4 10 -12 14 -22 11 -8 -3 -15 -1 -15 6 0 6 4 9 9 5 6 -3 8 8 4 28 -3
23 0 38 11 50 16 16 22 38 9 35 -5 0 -23 -3 -41 -5z m5 -76 c-7 -18 -52 -15
-52 4 0 8 5 14 12 14 6 0 15 3 19 8 11 11 28 -9 21 -26z m-74 -79 c5 -15 -21
-58 -34 -58 -5 0 -9 9 -9 20 0 11 5 20 10 20 6 0 9 3 9 8 -4 24 16 32 24 10z
m-33 -78 c0 -5 -5 -10 -11 -10 -5 0 -7 5 -4 10 3 6 8 10 11 10 2 0 4 -4 4 -10z
m78 -43 c3 -16 -4 -17 -67 -8 -3 1 4 8 15 16 24 18 48 15 52 -8z m-120 -74
c-4 -37 -25 -40 -26 -3 0 20 4 30 14 30 11 0 14 -8 12 -27z m92 12 c0 -22 -59
-50 -74 -34 -8 9 -8 10 2 5 8 -5 12 0 12 13 0 14 8 21 28 24 15 2 28 5 30 6 1
0 2 -6 2 -14z m-130 -90 c0 -8 -2 -15 -4 -15 -2 0 -6 7 -10 15 -3 8 -1 15 4
15 6 0 10 -7 10 -15z m0 -63 c0 -5 -6 -9 -12 -9 -7 0 -22 -4 -33 -8 l-20 -8
20 16 c22 18 45 22 45 9z m20 -37 c0 -8 -2 -15 -4 -15 -2 0 -6 7 -10 15 -3 8
-1 15 4 15 6 0 10 -7 10 -15z m-490 -110 c0 -8 10 -17 21 -20 12 -4 17 -10 12
-14 -5 -3 -13 -15 -18 -26 -8 -19 -9 -18 -13 5 -2 14 -12 34 -23 46 -11 11
-16 23 -13 27 9 9 34 -4 34 -18z m490 11 c0 -11 -19 -15 -25 -6 -3 5 1 10 9
10 9 0 16 -2 16 -4z m-500 -70 c0 -12 -27 -27 -54 -30 -5 -1 -10 9 -11 22 -1
12 4 22 12 22 7 0 13 5 13 10 0 7 6 7 20 0 11 -6 20 -17 20 -24z m491 11 c-1
-12 -15 -9 -19 4 -3 6 1 10 8 8 6 -3 11 -8 11 -12z m-441 -47 c0 -5 -9 -10
-20 -10 -11 0 -20 5 -20 10 0 6 9 10 20 10 11 0 20 -4 20 -10z m415 -19 c3 -5
1 -12 -5 -16 -5 -3 -10 1 -10 9 0 18 6 21 15 7z m-465 -21 c0 -5 -10 -10 -22
-9 -22 0 -22 1 -3 9 11 5 21 9 23 9 1 1 2 -3 2 -9z m65 -12 c-1 -13 -3 -29 -4
-36 0 -7 -6 -10 -11 -7 -7 4 -7 13 0 26 7 13 7 19 0 19 -5 0 -10 5 -10 10 0 6
6 10 14 10 8 0 12 -9 11 -22z m285 -9 c0 -5 -7 -9 -15 -9 -9 0 -12 6 -9 15 6
15 24 11 24 -6z m-330 -9 c0 -5 -7 -7 -16 -3 -10 4 -17 -1 -21 -16 -3 -11 -9
-19 -13 -16 -5 3 -6 14 -3 25 5 20 53 30 53 10z m300 -20 c0 -5 -4 -10 -10
-10 -5 0 -10 5 -10 10 0 6 5 10 10 10 6 0 10 -4 10 -10z m-220 -26 c0 -16 -16
-19 -25 -4 -8 13 4 32 16 25 5 -4 9 -13 9 -21z m-26 -35 c-3 -5 -1 -9 5 -9 5
0 13 5 17 11 4 8 9 7 15 -2 13 -21 11 -29 -6 -23 -8 4 -15 1 -15 -4 0 -7 -10
-8 -28 -2 -16 4 -35 4 -43 -1 -8 -4 -21 -3 -29 2 -13 8 -12 12 4 24 11 8 28
13 38 9 10 -3 18 -1 18 5 0 6 7 8 15 5 8 -4 12 -10 9 -15z m223 -52 c-8 -7
-17 -19 -20 -27 -4 -12 -6 -11 -12 4 -6 13 -3 23 10 32 22 16 42 7 22 -9z
m-172 3 c3 -5 2 -10 -4 -10 -5 0 -13 5 -16 10 -3 6 -2 10 4 10 5 0 13 -4 16
-10z m-5 -51 c0 -20 -4 -29 -12 -26 -12 3 -13 13 -9 47 3 25 21 7 21 -21z
m261 12 c-9 -6 -6 -10 11 -15 l23 -7 -23 -11 c-27 -13 -72 3 -72 27 0 18 16
20 23 3 3 -10 9 -8 23 4 10 10 20 15 23 12 3 -3 0 -9 -8 -13z m-346 -1 c3 -5
1 -10 -4 -10 -6 0 -11 5 -11 10 0 6 2 10 4 10 3 0 8 -4 11 -10z m135 -20 c0
-5 -4 -10 -10 -10 -5 0 -10 5 -10 10 0 6 5 10 10 10 6 0 10 -4 10 -10z m-91
-13 c15 -19 2 -29 -15 -12 -8 7 -14 16 -14 19 0 11 17 6 29 -7z m83 -29 c-7
-7 -12 -8 -12 -2 0 14 12 26 19 19 2 -3 -1 -11 -7 -17z m202 4 c3 -5 2 -22 -3
-38 l-8 -29 -4 38 c-5 34 3 48 15 29z m-69 -12 c3 -5 1 -10 -4 -10 -6 0 -11 5
-11 10 0 6 2 10 4 10 3 0 8 -4 11 -10z m-173 -80 c-2 -17 -9 -29 -14 -28 -5 2
-9 6 -8 8 11 55 30 71 22 20z m-7 -260 c3 -5 1 -10 -4 -10 -6 0 -11 5 -11 10
0 6 2 10 4 10 3 0 8 -4 11 -10z m134 -26 c2 -2 -10 -4 -27 -4 -18 0 -32 5 -32
10 0 9 47 4 59 -6z m-139 -34 c0 -5 -8 -10 -17 -10 -15 0 -16 2 -3 10 19 12
20 12 20 0z m50 -315 c0 -8 -7 -15 -15 -15 -16 0 -20 12 -8 23 11 12 23 8 23
-8z m-140 -15 c0 -5 -4 -10 -10 -10 -5 0 -10 5 -10 10 0 6 5 10 10 10 6 0 10
-4 10 -10z m80 -261 c6 -11 8 -24 5 -29 -9 -15 -45 -12 -45 4 0 8 -2 21 -5 28
-9 22 34 19 45 -3z m-166 -10 c-8 -14 -24 -10 -24 6 0 9 6 12 15 9 8 -4 12
-10 9 -15z m40 6 c3 -9 0 -15 -9 -15 -8 0 -15 7 -15 15 0 8 4 15 9 15 5 0 11
-7 15 -15z m46 -5 c0 -5 -2 -10 -4 -10 -3 0 -8 5 -11 10 -3 6 -1 10 4 10 6 0
11 -4 11 -10z m-120 -190 c0 -5 -4 -10 -10 -10 -5 0 -10 5 -10 10 0 6 5 10 10
10 6 0 10 -4 10 -10z m-44 -90 c0 -11 -4 -20 -8 -20 -10 0 -11 24 -1 33 9 9 9
10 9 -13z m124 -30 c0 -5 -4 -10 -10 -10 -5 0 -10 5 -10 10 0 6 5 10 10 10 6
0 10 -4 10 -10z m-63 -116 c-3 -3 -12 -4 -19 -1 -8 3 -5 6 6 6 11 1 17 -2 13
-5z m40 -30 c-3 -16 1 -24 12 -26 13 -3 12 -6 -5 -16 -30 -16 -53 8 -29 31 9
10 11 18 5 22 -6 4 -8 11 -4 16 10 17 26 -3 21 -27z m-126 -52 c-10 -20 -45
-35 -55 -24 -13 12 -6 44 8 39 8 -3 20 1 27 9 17 21 34 2 20 -24z m106 -8 c2
-5 -5 -14 -15 -21 -17 -10 -18 -8 -14 13 4 24 22 29 29 8z"/>
<path d="M4335 4849 c-10 -15 3 -25 16 -12 7 7 7 13 1 17 -6 3 -14 1 -17 -5z"/>
<path d="M8040 4812 c0 -30 23 -82 37 -82 10 0 13 6 9 16 -3 9 -9 26 -12 39
-5 21 -34 44 -34 27z"/>
<path d="M4240 4770 c0 -13 11 -13 30 0 12 8 11 10 -7 10 -13 0 -23 -4 -23
-10z"/>
<path d="M5560 4765 c-10 -13 -9 -15 9 -15 12 0 21 6 21 15 0 8 -4 15 -9 15
-5 0 -14 -7 -21 -15z"/>
<path d="M5602 4758 c-20 -20 -13 -34 18 -36 30 -2 35 4 24 32 -7 19 -25 21
-42 4z"/>
<path d="M6190 4760 c0 -5 5 -10 10 -10 6 0 10 5 10 10 0 6 -4 10 -10 10 -5 0
-10 -4 -10 -10z"/>
<path d="M4130 4720 c0 -5 9 -10 19 -10 11 0 23 5 26 10 4 6 -5 10 -19 10 -14
0 -26 -4 -26 -10z"/>
<path d="M7867 4693 c-12 -12 -7 -22 8 -17 8 4 15 10 15 15 0 11 -14 12 -23 2z"/>
<path d="M5538 4676 c-24 -17 -12 -26 34 -26 27 0 38 4 38 15 0 9 -6 12 -15 9
-8 -4 -21 -2 -28 4 -8 7 -17 6 -29 -2z"/>
<path d="M5627 4659 c8 -8 16 -8 30 0 16 9 14 10 -11 11 -22 0 -27 -3 -19 -11z"/>
<path d="M5745 4649 c-9 -28 3 -38 19 -16 7 9 19 17 27 18 8 0 5 4 -6 9 -30
13 -33 12 -40 -11z"/>
<path d="M3440 4600 c0 -6 7 -10 15 -10 8 0 15 2 15 4 0 2 -7 6 -15 10 -8 3
-15 1 -15 -4z"/>
<path d="M3442 4532 c-15 -5 -16 -39 0 -44 18 -6 17 -51 -1 -65 -9 -7 -11 -13
-6 -13 6 0 3 -5 -5 -11 -12 -8 -10 -9 8 -4 19 6 22 3 22 -25 0 -18 -4 -29 -10
-25 -6 4 -10 -5 -10 -19 0 -21 5 -26 24 -26 29 0 43 15 22 23 -17 7 -15 29 4
52 12 15 12 19 -4 30 -12 9 -16 20 -11 34 3 11 1 29 -5 41 -9 17 -8 20 10 20
11 0 20 6 20 14 0 14 -36 26 -58 18z"/>
<path d="M3316 4513 c-3 -10 -4 -31 -2 -48 2 -16 0 -35 -6 -42 -12 -15 -1 -53
17 -53 7 0 15 7 19 15 3 8 15 15 26 15 11 0 20 6 20 14 0 8 10 17 23 19 l22 4
-23 2 c-13 0 -30 -6 -39 -14 -20 -21 -33 -10 -29 26 4 37 8 41 40 43 24 1 38
16 15 16 -5 0 -7 5 -4 10 8 14 -18 13 -32 -1 -8 -8 -13 -8 -17 0 -10 16 -24
13 -30 -6z"/>
<path d="M4220 4510 c-13 -8 -12 -10 3 -10 9 0 17 5 17 10 0 12 -1 12 -20 0z"/>
<path d="M8260 4466 c0 -8 5 -18 10 -21 6 -3 10 3 10 14 0 12 -4 21 -10 21 -5
0 -10 -6 -10 -14z"/>
<path d="M3860 4445 c-7 -9 -10 -19 -6 -22 4 -4 12 -1 17 7 8 11 9 10 4 -7 -7
-25 6 -30 24 -10 8 11 6 18 -8 31 -16 15 -19 15 -31 1z"/>
<path d="M8915 4370 c3 -5 10 -10 16 -10 5 0 9 5 9 10 0 6 -7 10 -16 10 -8 0
-12 -4 -9 -10z"/>
<path d="M3904 4333 c2 -10 7 -18 12 -18 5 0 15 -4 22 -8 20 -13 51 1 45 21
-3 12 -16 18 -43 20 -32 2 -38 -1 -36 -15z"/>
<path d="M3334 4332 c4 -8 0 -12 -12 -12 -16 0 -18 -7 -17 -45 1 -25 -2 -48
-6 -51 -13 -7 1 -67 19 -81 9 -7 11 -13 5 -13 -6 0 -14 -7 -17 -16 -7 -20 3
-66 14 -59 4 3 11 -3 14 -12 11 -28 25 4 20 44 -3 21 0 33 8 33 9 0 9 3 0 12
-7 7 -12 21 -12 31 0 15 5 18 24 15 17 -4 26 0 29 13 6 20 -10 39 -33 39 -13
0 -17 10 -18 40 -2 38 6 49 22 33 9 -9 36 -13 36 -5 -1 18 -19 33 -36 31 -11
-2 -25 0 -33 5 -10 6 -12 5 -7 -2z m3 -44 c-3 -8 -6 -5 -6 6 -1 11 2 17 5 13
3 -3 4 -12 1 -19z"/>
<path d="M3790 4331 c0 -5 7 -12 16 -15 14 -5 15 -4 4 9 -14 17 -20 19 -20 6z"/>
<path d="M4490 4330 c0 -5 5 -10 11 -10 5 0 7 5 4 10 -3 6 -8 10 -11 10 -2 0
-4 -4 -4 -10z"/>
<path d="M7230 4329 c0 -5 5 -7 10 -4 6 3 10 8 10 11 0 2 -4 4 -10 4 -5 0 -10
-5 -10 -11z"/>
<path d="M3756 4315 c-11 -8 -17 -17 -14 -20 2 -3 13 4 23 15 21 23 18 25 -9
5z"/>
<path d="M3460 4272 c0 -12 19 -26 26 -19 2 2 -2 10 -11 17 -9 8 -15 8 -15 2z"/>
<path d="M3715 4260 c-3 -5 1 -10 10 -10 9 0 13 5 10 10 -3 6 -8 10 -10 10 -2
0 -7 -4 -10 -10z"/>
<path d="M7490 4260 c0 -5 5 -10 11 -10 5 0 7 5 4 10 -3 6 -8 10 -11 10 -2 0
-4 -4 -4 -10z"/>
<path d="M3370 4251 c0 -5 12 -8 26 -8 18 0 22 2 13 8 -18 11 -39 11 -39 0z"/>
<path d="M4633 4228 c-23 -11 -31 -28 -14 -28 10 0 41 28 41 36 0 5 0 5 -27
-8z"/>
<path d="M10050 4229 c0 -5 5 -7 10 -4 6 3 10 8 10 11 0 2 -4 4 -10 4 -5 0
-10 -5 -10 -11z"/>
<path d="M10546 4223 c-6 -14 -5 -15 5 -6 7 7 10 15 7 18 -3 3 -9 -2 -12 -12z"/>
<path d="M4680 4220 c0 -5 5 -10 10 -10 6 0 10 5 10 10 0 6 -4 10 -10 10 -5 0
-10 -4 -10 -10z"/>
<path d="M3425 4170 c3 -5 8 -10 11 -10 2 0 4 5 4 10 0 6 -5 10 -11 10 -5 0
-7 -4 -4 -10z"/>
<path d="M3382 4156 c-18 -9 -20 -14 -10 -24 7 -7 13 -18 13 -25 0 -6 9 -13
20 -15 16 -3 18 -1 8 9 -15 15 -18 43 -4 34 15 -9 22 12 8 23 -8 7 -19 7 -35
-2z"/>
<path d="M6043 4163 c-7 -3 -13 -8 -13 -13 0 -13 35 -18 76 -10 l39 8 -35 1
c-20 0 -40 5 -45 10 -6 5 -16 6 -22 4z"/>
<path d="M10547 4154 c-4 -4 -4 -10 -1 -15 6 -10 34 0 34 12 0 10 -24 12 -33
3z"/>
<path d="M3460 4125 c-6 -8 -3 -19 10 -33 12 -12 15 -22 8 -24 -6 -2 -11 -18
-12 -36 -1 -37 -3 -38 -28 -15 -16 14 -18 14 -18 0 0 -13 -6 -14 -32 -6 -18 5
-45 9 -60 9 l-28 0 7 -67 c10 -104 10 -128 -4 -125 -18 3 -16 -35 2 -42 8 -3
15 -16 15 -28 0 -13 0 -39 0 -58 0 -19 0 -51 -2 -70 -1 -19 3 -51 9 -70 7 -19
12 -61 12 -92 1 -57 0 -58 -27 -58 l-27 0 29 -23 c16 -13 26 -29 22 -35 -3 -6
-2 -13 3 -16 5 -3 7 -14 4 -24 -2 -10 2 -24 9 -30 11 -9 21 -5 47 18 24 22 28
30 15 30 -16 0 -16 1 0 19 15 17 42 21 75 12 3 0 -4 -8 -15 -16 -10 -8 -14
-15 -7 -15 6 0 14 4 18 10 3 5 13 6 23 3 15 -6 15 -4 -1 14 -18 21 -18 22 2
42 27 27 34 26 29 -4 -4 -19 -1 -25 11 -25 18 0 41 -18 41 -32 0 -4 -5 -8 -11
-8 -5 0 -7 6 -3 13 5 8 2 8 -9 -2 -9 -7 -17 -20 -17 -27 0 -16 -26 -19 -35 -4
-5 8 -11 8 -20 0 -8 -6 -19 -10 -27 -10 -7 1 -24 -1 -37 -5 -22 -7 -20 -9 18
-22 37 -12 43 -12 57 2 15 14 19 13 51 -11 l36 -27 -5 32 c-3 17 -1 34 4 37 4
3 8 0 8 -6 0 -7 6 -8 18 -2 9 5 24 7 32 4 8 -3 2 7 -13 22 -22 21 -26 30 -18
40 6 7 9 21 5 30 -4 9 0 18 9 22 18 6 12 32 -12 52 -9 8 -10 10 -3 7 10 -5 13
-1 11 16 -2 13 0 30 4 37 5 7 4 12 -2 12 -6 0 -11 5 -11 11 0 7 -8 18 -17 25
-15 12 -16 13 -2 8 22 -7 33 11 17 28 -38 41 -49 88 -20 89 14 0 13 2 -4 9
-11 4 -28 19 -37 33 -14 21 -14 26 -2 31 17 6 12 42 -11 67 -16 18 -16 19 -1
19 20 0 22 16 5 27 -7 4 -13 14 -13 21 0 6 -4 12 -10 11 -5 0 -12 8 -16 18 -4
13 2 25 23 42 l28 24 -21 23 c-12 12 -18 27 -15 32 3 6 2 12 -4 14 -5 1 -10
17 -12 33 -1 22 -7 31 -21 31 -10 0 -22 -5 -27 -11z m-75 -148 c-4 -9 7 -11
42 -8 41 3 46 1 35 -11 -10 -12 -7 -20 12 -41 31 -33 23 -82 -12 -82 -22 0
-27 -6 -19 -28 2 -8 9 -7 21 6 15 15 76 25 76 13 0 -13 -49 -56 -64 -56 -9 0
-16 -8 -16 -21 0 -13 -4 -18 -12 -13 -7 4 -8 3 -4 -4 10 -17 36 -15 43 4 5 12
7 13 14 3 5 -8 3 -17 -4 -21 -18 -12 -67 -10 -67 3 0 5 -10 9 -22 7 -28 -4
-34 15 -11 37 11 11 18 14 21 6 2 -6 8 -11 13 -11 12 0 -1 33 -19 48 -10 7
-11 12 -4 12 7 0 12 7 12 16 0 12 -6 15 -25 10 -20 -5 -25 -3 -25 13 0 22 16
36 24 23 8 -14 57 -2 63 15 6 16 -15 35 -30 26 -4 -3 -6 -11 -4 -17 3 -7 -2
-12 -12 -11 -28 2 -43 16 -38 36 4 13 -2 23 -16 31 -21 11 -21 11 -2 19 29 11
35 10 30 -4z m100 -297 c3 -5 1 -10 -4 -10 -6 0 -11 -7 -11 -15 0 -8 -9 -15
-20 -15 -11 0 -20 -7 -20 -15 0 -21 -23 -19 -37 4 -15 24 6 46 35 37 13 -4 22
-1 26 9 6 17 22 20 31 5z m49 -22 c-3 -4 -13 -8 -24 -8 -13 0 -17 5 -13 19 4
17 8 18 23 8 10 -6 16 -15 14 -19z m-59 -38 c3 -5 1 -10 -4 -10 -6 0 -11 5
-11 10 0 6 2 10 4 10 3 0 8 -4 11 -10z m25 -28 c0 -5 -7 -9 -15 -9 -8 0 -15 4
-15 9 0 4 7 8 15 8 8 0 15 -4 15 -8z m-80 -38 c0 -16 -26 -19 -35 -4 -3 6 1
10 10 10 10 0 13 5 9 12 -4 7 -3 8 4 4 7 -4 12 -14 12 -22z m61 -27 c-8 -8
-11 -7 -11 4 0 20 13 34 18 19 3 -7 -1 -17 -7 -23z m-6 -27 c-3 -5 -17 -10
-31 -10 -13 0 -24 -3 -24 -7 1 -14 27 -43 39 -43 6 0 11 -8 11 -17 0 -15 -2
-16 -10 -3 -8 12 -11 12 -28 -3 -10 -9 -23 -17 -28 -17 -5 0 0 7 10 15 18 14
18 16 3 33 -18 19 -22 44 -10 55 11 11 75 8 68 -3z m49 -72 c-9 -14 -23 -9
-33 11 -10 17 -8 18 13 8 14 -7 22 -15 20 -19z m-134 -4 c0 -8 -5 -12 -10 -9
-6 4 -8 11 -5 16 9 14 15 11 15 -7z"/>
<path d="M3390 3940 c0 -18 3 -19 21 -9 17 9 19 13 8 20 -22 14 -29 11 -29
-11z"/>
<path d="M4120 4120 l-25 -6 25 -7 c34 -9 50 -9 50 2 0 13 -22 18 -50 11z"/>
<path d="M7566 4121 c-4 -5 -2 -12 3 -15 5 -4 12 -2 15 3 4 5 2 12 -3 15 -5 4
-12 2 -15 -3z"/>
<path d="M9816 4106 c7 -17 15 -18 54 -6 21 7 22 8 5 9 -11 1 -30 4 -43 7 -18
5 -21 3 -16 -10z"/>
<path d="M3430 4080 c0 -5 5 -10 11 -10 5 0 7 5 4 10 -3 6 -8 10 -11 10 -2 0
-4 -4 -4 -10z"/>
<path d="M9730 4082 c0 -4 9 -8 19 -8 11 0 17 4 15 8 -3 4 -12 8 -20 8 -8 0
-14 -4 -14 -8z"/>
<path d="M5632 4058 c-17 -11 -30 -24 -26 -29 7 -12 94 -12 94 0 0 5 -8 8 -17
7 -13 -1 -17 5 -16 22 2 12 2 22 0 21 -1 0 -17 -10 -35 -21z"/>
<path d="M9835 4060 c-19 -8 -19 -9 3 -9 12 -1 22 4 22 9 0 6 -1 10 -2 9 -2 0
-12 -4 -23 -9z"/>
<path d="M10030 4060 c0 -5 6 -10 14 -10 8 0 18 5 21 10 3 6 -3 10 -14 10 -12
0 -21 -4 -21 -10z"/>
<path d="M3390 4051 c0 -6 5 -13 10 -16 6 -3 10 1 10 9 0 9 -4 16 -10 16 -5 0
-10 -4 -10 -9z"/>
<path d="M5755 4049 c-4 -6 -4 -13 -1 -16 8 -8 36 5 36 17 0 13 -27 13 -35 -1z"/>
<path d="M9959 4029 c-10 -6 -4 -9 19 -9 17 0 32 2 32 4 0 9 -39 13 -51 5z"/>
<path d="M4861 4021 l-24 -6 27 -13 c22 -10 31 -10 47 2 18 12 18 14 4 20 -19
7 -20 7 -54 -3z"/>
<path d="M5713 4008 c-2 -16 1 -18 10 -9 7 7 8 14 1 21 -6 6 -10 2 -11 -12z"/>
<path d="M9847 4024 c7 -3 10 -11 7 -19 -4 -10 3 -13 31 -10 36 3 69 21 43 23
-7 0 -31 3 -53 6 -22 4 -35 4 -28 0z"/>
<path d="M9660 3989 c0 -5 5 -7 10 -4 6 3 10 8 10 11 0 2 -4 4 -10 4 -5 0 -10
-5 -10 -11z"/>
<path d="M8821 3971 c-8 -6 -9 -11 -3 -15 6 -3 14 -1 17 5 9 14 2 20 -14 10z"/>
<path d="M9708 3959 c-10 -5 -34 -9 -54 -7 -25 2 -39 -2 -42 -11 -3 -10 1 -12
17 -8 27 7 38 -9 11 -18 -11 -3 -20 -11 -20 -17 0 -5 7 -7 16 -4 8 3 24 1 34
-4 16 -8 18 -8 14 5 -4 8 -1 15 6 15 7 0 26 6 43 14 18 8 40 17 50 20 18 6 15
26 -4 26 -6 0 -7 -4 -4 -10 4 -7 -3 -7 -20 0 -31 12 -26 12 -47 -1z"/>
<path d="M5563 3943 c-3 -10 -8 -21 -10 -25 -2 -4 1 -9 5 -12 5 -3 19 8 31 24
22 30 22 30 1 30 -11 0 -23 -8 -27 -17z"/>
<path d="M9562 3938 c6 -18 28 -21 28 -4 0 9 -7 16 -16 16 -9 0 -14 -5 -12
-12z"/>
<path d="M4980 3920 c0 -5 7 -10 16 -10 8 0 12 5 9 10 -3 6 -10 10 -16 10 -5
0 -9 -4 -9 -10z"/>
<path d="M5545 3869 c-9 -26 -5 -30 23 -22 27 7 28 19 3 33 -16 8 -21 6 -26
-11z"/>
<path d="M5548 3803 c6 -2 18 -2 25 0 6 3 1 5 -13 5 -14 0 -19 -2 -12 -5z"/>
<path d="M9950 3745 c0 -11 7 -15 23 -13 12 2 22 8 22 13 0 6 -10 11 -22 13
-16 2 -23 -2 -23 -13z"/>
<path d="M9970 3690 c0 -5 5 -10 10 -10 6 0 10 5 10 10 0 6 -4 10 -10 10 -5 0
-10 -4 -10 -10z"/>
<path d="M5210 3639 c0 -5 5 -7 10 -4 6 3 10 8 10 11 0 2 -4 4 -10 4 -5 0 -10
-5 -10 -11z"/>
<path d="M5576 3621 c-3 -5 1 -14 8 -20 12 -10 13 -8 9 8 -6 23 -9 25 -17 12z"/>
<path d="M8680 3565 c-10 -12 -10 -15 3 -15 19 0 31 16 18 24 -5 3 -14 -1 -21
-9z"/>
<path d="M7550 3561 c0 -6 4 -13 10 -16 6 -3 7 1 4 9 -7 18 -14 21 -14 7z"/>
<path d="M7570 3454 c0 -8 5 -12 10 -9 6 4 8 11 5 16 -9 14 -15 11 -15 -7z"/>
<path d="M8695 3460 c3 -5 8 -10 11 -10 2 0 4 5 4 10 0 6 -5 10 -11 10 -5 0
-7 -4 -4 -10z"/>
<path d="M6543 3442 c-31 -5 -29 -18 3 -26 31 -8 34 -6 25 14 -3 9 -16 14 -28
12z"/>
<path d="M6023 3433 c9 -2 17 -9 17 -14 0 -5 5 -9 11 -9 8 0 8 5 -1 15 -7 8
-20 14 -29 14 -13 -1 -13 -2 2 -6z"/>
<path d="M6070 3420 c0 -5 4 -10 9 -10 6 0 13 5 16 10 3 6 -1 10 -9 10 -9 0
-16 -4 -16 -10z"/>
<path d="M7550 3420 c0 -5 5 -10 11 -10 5 0 7 5 4 10 -3 6 -8 10 -11 10 -2 0
-4 -4 -4 -10z"/>
<path d="M6400 3405 c0 -8 5 -15 10 -15 6 0 10 7 10 15 0 8 -4 15 -10 15 -5 0
-10 -7 -10 -15z"/>
<path d="M4996 3361 c-3 -5 1 -12 10 -15 20 -8 29 -1 19 13 -8 13 -22 14 -29
2z"/>
<path d="M7230 3341 c0 -5 9 -7 20 -4 11 3 20 7 20 9 0 2 -9 4 -20 4 -11 0
-20 -4 -20 -9z"/>
<path d="M8653 3318 c2 -7 10 -13 17 -13 7 0 15 6 18 13 2 7 -5 12 -18 12 -13
0 -20 -5 -17 -12z"/>
<path d="M3290 3300 c0 -5 7 -10 16 -10 8 0 12 5 9 10 -3 6 -10 10 -16 10 -5
0 -9 -4 -9 -10z"/>
<path d="M9465 3290 c-3 -5 -1 -10 4 -10 6 0 11 5 11 10 0 6 -2 10 -4 10 -3 0
-8 -4 -11 -10z"/>
<path d="M3374 3255 c-17 -13 -17 -16 -3 -27 8 -7 18 -21 22 -30 3 -10 13 -18
21 -18 8 0 22 -3 31 -6 13 -5 16 -2 14 11 -2 10 -12 19 -23 21 -25 4 -37 16
-39 43 -1 11 -2 21 -2 21 -1 0 -10 -7 -21 -15z"/>
<path d="M8185 3250 c3 -5 10 -10 16 -10 5 0 9 5 9 10 0 6 -7 10 -16 10 -8 0
-12 -4 -9 -10z"/>
<path d="M3485 3220 c3 -5 1 -10 -6 -10 -8 0 -9 -3 0 -13 6 -8 9 -16 6 -19 -3
-2 1 -5 9 -5 8 0 12 6 9 14 -3 7 3 16 12 19 13 5 14 9 3 15 -18 12 -40 11 -33
-1z"/>
<path d="M3305 3190 c28 -12 57 -12 50 0 -3 6 -21 10 -38 9 -27 0 -29 -2 -12
-9z"/>
<path d="M9540 3170 c-12 -8 -10 -10 8 -10 13 0 20 4 17 10 -7 12 -6 12 -25 0z"/>
<path d="M9685 3120 c4 -6 11 -8 16 -5 14 9 11 15 -7 15 -8 0 -12 -5 -9 -10z"/>
<path d="M8150 3041 c0 -5 6 -11 13 -14 8 -3 14 1 14 9 0 8 -6 14 -14 14 -7 0
-13 -4 -13 -9z"/>
<path d="M8075 3030 c-8 -13 4 -32 16 -25 12 8 12 35 0 35 -6 0 -13 -4 -16
-10z"/>
<path d="M8053 2930 c-19 -29 -2 -31 30 -4 28 24 28 24 5 24 -13 0 -29 -9 -35
-20z"/>
<path d="M8040 2835 c0 -8 -4 -15 -10 -15 -5 0 -10 -5 -10 -11 0 -8 4 -8 13
-1 7 5 21 6 32 1 30 -12 35 -11 35 10 0 19 -18 31 -46 31 -8 0 -14 -7 -14 -15z"/>
<path d="M8500 2830 c0 -6 11 -8 28 -4 39 10 40 14 4 14 -18 0 -32 -5 -32 -10z"/>
<path d="M7976 2632 c-4 -13 -5 -26 -2 -29 10 -11 18 4 14 29 l-4 23 -8 -23z"/>
<path d="M8376 2324 c-4 -10 -1 -14 6 -12 15 5 23 28 10 28 -5 0 -13 -7 -16
-16z"/>
<path d="M8275 2260 c-3 -5 -2 -10 4 -10 5 0 13 5 16 10 3 6 2 10 -4 10 -5 0
-13 -4 -16 -10z"/>
<path d="M8263 2225 c0 -18 75 -31 90 -16 8 8 4 11 -15 11 -15 0 -37 4 -51 9
-18 7 -24 6 -24 -4z"/>
</g>
</svg>
